<?xml version="1.0" encoding="UTF-8" standalone="no"?>
<!-- Created with Inkscape (http://www.inkscape.org/) -->

<svg
   xmlns:dc="http://purl.org/dc/elements/1.1/"
   xmlns:cc="http://creativecommons.org/ns#"
   xmlns:rdf="http://www.w3.org/1999/02/22-rdf-syntax-ns#"
   xmlns:svg="http://www.w3.org/2000/svg"
   xmlns="http://www.w3.org/2000/svg"
   xmlns:sodipodi="http://sodipodi.sourceforge.net/DTD/sodipodi-0.dtd"
   xmlns:inkscape="http://www.inkscape.org/namespaces/inkscape"
   width="744.09448819"
   height="1052.3622047"
   id="svg3288"
   version="1.1"
   inkscape:version="0.48.4 r9939"
   sodipodi:docname="background2.svg"
   inkscape:export-filename="/home/olle/projekt/android/HappyBirds_trunk/res/drawable/background3_thumbnail.png"
   inkscape:export-xdpi="180"
   inkscape:export-ydpi="180">
  <defs
     id="defs3290">
    <filter
       inkscape:collect="always"
       id="filter4190"
       x="-0.17657038"
       width="1.3531408"
       y="-0.43893205"
       height="1.8778641">
      <feGaussianBlur
         inkscape:collect="always"
         stdDeviation="32.699888"
         id="feGaussianBlur4192" />
    </filter>
    <filter
       inkscape:collect="always"
       id="filter4405">
      <feGaussianBlur
         inkscape:collect="always"
         stdDeviation="10.670369"
         id="feGaussianBlur4407" />
    </filter>
    <clipPath
       clipPathUnits="userSpaceOnUse"
       id="clipPath4429">
      <rect
         y="-9.5616579"
         x="-3.6939812"
         height="350"
         width="700"
         id="rect4431"
         style="fill:#c8ab37;fill-opacity:1;stroke:none" />
    </clipPath>
    <clipPath
       clipPathUnits="userSpaceOnUse"
       id="clipPath4523">
      <rect
         y="-497.25116"
         x="-17.099627"
         height="375.96774"
         width="751.93549"
         id="rect4525"
         style="fill:#c8ab37;fill-opacity:1;stroke:none"
         rx="21.483871"
         ry="21.483871" />
    </clipPath>
    <clipPath
       clipPathUnits="userSpaceOnUse"
       id="clipPath4739">
      <rect
         y="-13.342052"
         x="1047.3376"
         height="528.5061"
         width="678.15778"
         id="rect4741"
         style="fill:#c8ab37;fill-opacity:1;stroke:none" />
    </clipPath>
    <clipPath
       clipPathUnits="userSpaceOnUse"
       id="clipPath4745">
      <rect
         y="63.030388"
         x="890.64099"
         height="392.15512"
         width="700"
         id="rect4747"
         style="fill:#c8ab37;fill-opacity:1;stroke:none" />
    </clipPath>
    <clipPath
       clipPathUnits="userSpaceOnUse"
       id="clipPath4886">
      <rect
         y="-764.15729"
         x="1048.4159"
         height="600"
         width="700"
         id="rect4888"
         style="fill:#c8ab37;fill-opacity:1;stroke:none" />
    </clipPath>
    <clipPath
       clipPathUnits="userSpaceOnUse"
       id="clipPath4890">
      <rect
         style="fill:#c8ab37;fill-opacity:1;stroke:none"
         id="rect4892"
         width="700"
         height="392.15512"
         x="9.9790936"
         y="60.373394" />
    </clipPath>
  </defs>
  <sodipodi:namedview
     id="base"
     pagecolor="#ffffff"
     bordercolor="#666666"
     borderopacity="1.0"
     inkscape:pageopacity="0.0"
     inkscape:pageshadow="2"
     inkscape:zoom="0.49497475"
     inkscape:cx="1110.7654"
     inkscape:cy="526.20621"
     inkscape:document-units="px"
     inkscape:current-layer="layer1"
     showgrid="false"
     inkscape:window-width="1920"
     inkscape:window-height="980"
     inkscape:window-x="0"
     inkscape:window-y="28"
     inkscape:window-maximized="1" />
  <metadata
     id="metadata3293">
    <rdf:RDF>
      <cc:Work
         rdf:about="">
        <dc:format>image/svg+xml</dc:format>
        <dc:type
           rdf:resource="http://purl.org/dc/dcmitype/StillImage" />
        <dc:title></dc:title>
      </cc:Work>
    </rdf:RDF>
  </metadata>
  <g
     inkscape:label="Layer 1"
     inkscape:groupmode="layer"
     id="layer1">
    <rect
       style="fill:#803300;fill-opacity:1;stroke:none"
       id="rect4194"
       width="1064.2858"
       height="420"
       x="-156.37781"
       y="584.62762" />
    <g
       id="g4201"
       transform="matrix(1.0431677,0,0,1,-15.135134,0)">
      <path
         sodipodi:nodetypes="cscccccccccccccccccccc"
         inkscape:connector-curvature="0"
         id="path3324"
         d="m 1.6229211,832.61998 c 0,0 35.0780799,-92.08946 37.8386699,-92.08946 2.76059,0 21.39458,50.81256 21.39458,50.81256 l 50.380769,-114.75645 23.46502,150.7249 30.36649,-65.08575 17.25369,48.52885 30.36648,-67.94039 15.8734,59.37647 51.76106,-174.70387 42.099,218.6653 36.57782,-72.50781 26.91575,94.77397 48.31033,-108.47624 16.56354,79.92988 49.69062,-95.34492 53.14136,91.91936 80.74726,-110.18905 66.25416,101.62513 -0.69014,158.14699 -697.7391489,0 z"
         style="fill:#c82c1c;fill-opacity:1;stroke:#000000;stroke-width:1.95818138;stroke-linecap:butt;stroke-linejoin:miter;stroke-miterlimit:4;stroke-opacity:1;stroke-dasharray:none" />
      <path
         style="fill:#7a1b11;fill-opacity:1;stroke:none"
         d="m -0.39738636,863.85035 c 0,0 35.07808036,-61.21474 37.83867036,-61.21474 2.76059,0 21.39458,33.77669 21.39458,33.77669 l 50.380776,-76.2822 23.46502,100.19155 30.36649,-43.26453 17.25369,32.25864 30.36648,-45.1621 15.8734,39.46939 51.76105,-116.1311 42.099,145.35365 36.57782,-48.19821 26.91575,62.99921 48.31033,-72.10754 16.56354,53.13188 49.69062,-63.37874 53.14136,61.10167 80.74726,-73.24611 66.25416,67.55341 -0.69014,105.12523 -697.73914636,0 z"
         id="path4180"
         inkscape:connector-curvature="0"
         sodipodi:nodetypes="cscccccccccccccccccccc" />
    </g>
    <path
       sodipodi:type="arc"
       style="fill:#ff6600;fill-opacity:1;stroke:none;filter:url(#filter4190)"
       id="path4094"
       sodipodi:cx="429.31482"
       sodipodi:cy="1036.7048"
       sodipodi:rx="222.23357"
       sodipodi:ry="89.398499"
       d="m 651.54839,1036.7048 a 222.23357,89.398499 0 1 1 -444.46714,0 222.23357,89.398499 0 1 1 444.46714,0 z"
       transform="matrix(2.1052659,0,0,1.1578856,-544.24267,-206.26563)" />
    <rect
       style="fill:#c8ab37;fill-opacity:1;stroke:none"
       id="rect4205"
       width="700"
       height="350"
       x="-2.0203052"
       y="628.62109" />
    <rect
       y="79.60318"
       x="-2.0203052"
       height="350"
       width="700"
       id="rect3031"
       style="fill:#dc4fa8;fill-opacity:1;stroke:none" />
    <rect
       style="fill:#e27786;fill-opacity:1;stroke:none"
       id="rect4153"
       width="700"
       height="159.08116"
       x="-2.0203052"
       y="79.098106" />
    <rect
       y="79.098106"
       x="-2.0203052"
       height="40.893314"
       width="700"
       id="rect4155"
       style="fill:#e78d99;fill-opacity:1;stroke:none" />
    <path
       style="fill:#5c7956;fill-opacity:1;stroke:#000000;stroke-width:0.99999994000000003;stroke-linecap:round;stroke-linejoin:round;stroke-miterlimit:4;stroke-opacity:1;stroke-dasharray:none"
       d="m 262.22846,463.64163 c 0,0 -0.36333,-167.90248 0.24223,-194.33819 0.60554,-26.43571 -1.93776,-42.86872 -1.93776,-42.86872 0,0 1.2111,-1.78619 1.63498,-11.07442 0.58819,-12.88862 0.18166,-151.11224 0.18166,-151.11224 l 11.50546,1e-6 c 0,0 0.24221,131.464079 0.96887,153.612919 0.72667,22.14884 -0.58016,115.9603 -0.50009,126.35254 0.0479,6.22172 1.06512,18.54861 0.98395,24.21607 -0.0686,4.79334 -0.72073,23.35148 -0.62272,46.98433 0.0656,15.83126 -0.5878,48.22771 -0.5878,48.22771"
       id="path3879"
       inkscape:connector-curvature="0"
       sodipodi:nodetypes="cscsccssssc" />
    <path
       sodipodi:nodetypes="cscsccssssc"
       inkscape:connector-curvature="0"
       id="path3881"
       d="m 263.10482,463.64163 c 0,0 -0.23209,-167.90248 0.15473,-194.33819 0.38681,-26.43571 -1.23782,-42.86872 -1.23782,-42.86872 0,0 0.77364,-1.78619 1.04441,-11.07442 0.37574,-12.88862 0.116,-151.11224 0.116,-151.11224 l 7.34953,1e-6 c 0,0 0.15472,131.464079 0.6189,153.612919 0.46419,22.14884 -0.37061,115.9603 -0.31947,126.35254 0.0306,6.22172 0.6804,18.54861 0.62854,24.21607 -0.0438,4.79334 -0.46039,23.35148 -0.39778,46.98433 0.0419,15.83126 -0.37547,48.22771 -0.37547,48.22771"
       style="opacity:0.23673467;fill:#ffffff;fill-opacity:1;stroke:none" />
    <path
       style="opacity:0.23673467;fill:#ffffff;fill-opacity:1;stroke:none"
       d="m 263.90378,463.64163 c 0,0 -0.0362,-167.90248 0.0241,-194.33819 0.0603,-26.43571 -0.19314,-42.86872 -0.19314,-42.86872 0,0 0.12076,-1.78619 0.16296,-11.07442 0.0587,-12.88862 0.0181,-151.11224 0.0181,-151.11224 l 1.14674,1e-6 c 0,0 0.0241,131.464079 0.0965,153.612919 0.0724,22.14884 -0.0579,115.9603 -0.0498,126.35254 0.005,6.22172 0.1062,18.54861 0.098,24.21607 -0.007,4.79334 -0.0719,23.35148 -0.0621,46.98433 0.007,15.83126 -0.0585,48.22771 -0.0585,48.22771"
       id="path3883"
       inkscape:connector-curvature="0"
       sodipodi:nodetypes="cscsccssssc" />
    <g
       transform="matrix(1.3615042,0,0,1,-17.163651,0)"
       id="g3909" />
    <path
       style="fill:#476940;fill-opacity:1;stroke:#000000;stroke-width:0.99999994000000003;stroke-linecap:round;stroke-linejoin:round;stroke-miterlimit:4;stroke-opacity:1;stroke-dasharray:none"
       d="m 407.93194,458.64163 c 0,0 -0.56454,-167.90248 0.37636,-194.33819 0.94088,-26.43571 -3.01085,-42.86872 -3.01085,-42.86872 0,0 1.88178,-1.78619 2.54039,-11.07442 0.91393,-12.88862 0.28227,-151.11224 0.28227,-151.11224 l 17.87692,10e-7 c 0,0 0.37634,131.464079 1.50541,153.612919 1.12907,22.14884 -0.90144,115.9603 -0.77703,126.35254 0.0745,6.22172 1.65496,18.54861 1.52883,24.21607 -0.10662,4.79334 -1.11985,23.35148 -0.96755,46.98433 0.10196,15.83126 -0.91332,48.22771 -0.91332,48.22771"
       id="path3959"
       inkscape:connector-curvature="0"
       sodipodi:nodetypes="cscsccssssc" />
    <path
       sodipodi:nodetypes="cscsccssssc"
       inkscape:connector-curvature="0"
       id="path3961"
       d="m 409.29361,458.64163 c 0,0 -0.36063,-167.90248 0.2404,-194.33819 0.60103,-26.43571 -1.92328,-42.86872 -1.92328,-42.86872 0,0 1.20205,-1.78619 1.62278,-11.07442 0.5838,-12.88862 0.18023,-151.11224 0.18023,-151.11224 l 11.41952,10e-7 c 0,0 0.24041,131.464079 0.96163,153.612919 0.72125,22.14884 -0.57583,115.9603 -0.49637,126.35254 0.0476,6.22172 1.05719,18.54861 0.97661,24.21607 -0.0681,4.79334 -0.71535,23.35148 -0.61806,46.98433 0.0652,15.83126 -0.5834,48.22771 -0.5834,48.22771"
       style="opacity:0.23673467;fill:#ffffff;fill-opacity:1;stroke:none" />
    <path
       style="opacity:0.23673467;fill:#ffffff;fill-opacity:1;stroke:none"
       d="m 410.53501,458.64163 c 0,0 -0.0563,-167.90248 0.0374,-194.33819 0.0937,-26.43571 -0.3001,-42.86872 -0.3001,-42.86872 0,0 0.18764,-1.78619 0.2532,-11.07442 0.0912,-12.88862 0.0281,-151.11224 0.0281,-151.11224 l 1.78178,10e-7 c 0,0 0.0374,131.464079 0.14999,153.612919 0.11254,22.14884 -0.0899,115.9603 -0.0774,126.35254 0.008,6.22172 0.16501,18.54861 0.15231,24.21607 -0.0106,4.79334 -0.11169,23.35148 -0.0965,46.98433 0.0106,15.83126 -0.091,48.22771 -0.091,48.22771"
       id="path3963"
       inkscape:connector-curvature="0"
       sodipodi:nodetypes="cscsccssssc" />
    <path
       style="fill:#698064;fill-opacity:1;stroke:#000000;stroke-width:0.99999981999999998;stroke-linecap:round;stroke-linejoin:round;stroke-miterlimit:4;stroke-opacity:1;stroke-dasharray:none"
       d="m 339.4746,460.48862 c 0,0 1.0882,-167.75298 0.90199,-194.33819 -0.16376,-23.40525 -1.16867,-40.84841 -1.16867,-40.84841 0,0 -5.16554,-49.26336 -3.58712,-58.55159 2.19031,-12.88862 4.30476,-105.65538 4.30476,-105.65538 l 42.84359,10e-7 c 0,0 0.90193,131.464079 3.60785,153.612919 2.70591,22.14884 -2.1604,115.9603 -1.86224,126.35254 0.17847,6.22172 3.96626,18.54861 3.66399,24.21607 -0.25553,4.79334 -2.68382,23.35148 -2.31883,46.98433 0.24437,15.83126 -2.18884,48.22771 -2.18884,48.22771"
       id="path3967"
       inkscape:connector-curvature="0"
       sodipodi:nodetypes="cscsccssssc" />
    <path
       sodipodi:nodetypes="cscsccssssc"
       inkscape:connector-curvature="0"
       id="path3969"
       d="m 342.73795,460.48862 c 0,0 -0.86427,-167.90248 0.57614,-194.33819 1.44042,-26.43571 -0.17491,-33.27227 -0.17491,-33.27227 0,0 -3.16631,-41.43468 -2.15775,-50.72291 1.39914,-12.88862 2.0447,-121.0602 2.0447,-121.0602 l 27.36785,10e-7 c 0,0 0.57615,131.464079 2.30464,153.612919 1.72854,22.14884 -1.38003,115.9603 -1.1896,126.35254 0.11406,6.22172 2.53364,18.54861 2.34052,24.21607 -0.16325,4.79334 -1.71439,23.35148 -1.48123,46.98433 0.15616,15.83126 -1.39818,48.22771 -1.39818,48.22771"
       style="opacity:0.23673467;fill:#ffffff;fill-opacity:1;stroke:none" />
    <path
       style="opacity:0.23673467;fill:#ffffff;fill-opacity:1;stroke:none"
       d="m 345.71307,460.48862 c 0,0 -0.13485,-167.90248 0.0897,-194.33819 0.2246,-26.43571 -0.71921,-42.86872 -0.71921,-42.86872 0,0 -0.96131,-10.87756 -0.80419,-20.16579 0.21851,-12.88862 0.0675,-151.112243 0.0675,-151.112243 l 5.68119,9.091374 c 0,0 0.0897,131.464079 0.35946,153.612919 0.26971,22.14884 -0.21548,115.9603 -0.18556,126.35254 0.0203,6.22172 0.39545,18.54861 0.36503,24.21607 -0.0254,4.79334 -0.26769,23.35148 -0.23118,46.98433 0.0254,15.83126 -0.21801,48.22771 -0.21801,48.22771"
       id="path3971"
       inkscape:connector-curvature="0"
       sodipodi:nodetypes="cscsccssssc" />
    <g
       id="g3997">
      <path
         style="fill:#548f47;fill-opacity:1;stroke:#000000;stroke-width:2;stroke-linecap:round;stroke-linejoin:round;stroke-miterlimit:4;stroke-opacity:1;stroke-dasharray:none"
         d="m 560.36878,458.64163 c 0,0 -0.81488,-161.77312 1.75215,-188.27727 2.5604,-26.43571 7.43651,-48.92964 7.19601,-48.92964 0,0 -3.86616,-16.4334 -6.10321,-25.72163 -0.53652,-2.22762 1.6047,-33.93966 2.3075,-39.09452 0.8261,-6.05921 -0.4621,-23.3838 -0.63317,-30.90929 -0.74523,-32.782988 3.93293,-65.956144 3.93293,-65.956144 l -69.81107,-0.505075 c 0,0 -0.1412,14.599896 -0.54918,34.488701 -0.0949,4.62504 -2.72956,8.525938 -2.85487,13.605908 -0.17742,7.19267 2.13845,15.73414 1.89236,23.27174 -1.08153,33.12757 -2.86948,66.37652 -5.74441,71.53228 -3.17868,5.70049 5.04611,8.85225 5.2148,24.51078 0.41227,38.2694 -0.1328,105.1813 -0.43267,112.55605 -0.25299,6.22172 -0.62116,26.40575 -0.19277,32.07321 0.36233,4.79334 -1.19636,15.49434 -1.71363,39.12719 -0.34652,15.83126 3.10206,48.22771 3.10206,48.22771"
         id="path3836"
         inkscape:connector-curvature="0"
         sodipodi:nodetypes="cscsssccssssssssc" />
      <path
         style="fill:#33b300;fill-opacity:1;stroke:#000000;stroke-width:1.99999988;stroke-linecap:round;stroke-linejoin:round;stroke-miterlimit:4;stroke-opacity:1;stroke-dasharray:none"
         d="m 569.85949,221.00111 c 0,0 3.31238,-8.18869 8.48797,-10.85001 5.17559,-2.66132 14.69867,-1.84245 14.69867,-1.84245 0,0 -5.38261,9.41699 -10.14415,11.46415 -4.76155,2.04717 -13.04249,1.22831 -13.04249,1.22831 z"
         id="path3842"
         inkscape:connector-curvature="0" />
      <path
         inkscape:connector-curvature="0"
         id="path3844"
         d="m 575.77656,216.82272 c 0,0 2.04598,-4.89931 5.24283,-6.49159 3.19684,-1.59227 9.07903,-1.10233 9.07903,-1.10233 0,0 -3.32471,5.6342 -6.26581,6.85902 -2.9411,1.22483 -8.05605,0.7349 -8.05605,0.7349 z"
         style="opacity:0.27346939;fill:#ffffff;fill-opacity:1;stroke:none" />
      <path
         inkscape:connector-curvature="0"
         id="path3846"
         d="m 491.10003,206.25918 c 0,0 -4.04062,-10.10153 -10.35407,-13.38453 -6.31345,-3.28299 -17.93021,-2.27284 -17.93021,-2.27284 0,0 6.566,11.61676 12.37437,14.14214 5.80838,2.52538 15.90991,1.51523 15.90991,1.51523 z"
         style="fill:#33b300;fill-opacity:1;stroke:#000000;stroke-width:2;stroke-linecap:round;stroke-linejoin:round;stroke-miterlimit:4;stroke-opacity:1;stroke-dasharray:none" />
      <path
         style="opacity:0.27346939;fill:#ffffff;fill-opacity:1;stroke:none"
         d="m 483.88208,201.10474 c 0,0 -2.4958,-6.04377 -6.39548,-8.008 -3.89968,-1.96422 -11.07509,-1.35984 -11.07509,-1.35984 0,0 4.05567,6.95033 7.64337,8.46127 3.58771,1.51094 9.8272,0.90657 9.8272,0.90657 z"
         id="path3848"
         inkscape:connector-curvature="0" />
      <path
         style="fill:#33b300;fill-opacity:1;stroke:#000000;stroke-width:2;stroke-linecap:round;stroke-linejoin:round;stroke-miterlimit:4;stroke-opacity:1;stroke-dasharray:none"
         d="m 495.20421,105.32221 c 0,0 -0.54645,-6.765023 -3.76947,-9.939203 -3.22303,-3.174179 -10.48976,-4.842961 -10.48976,-4.842961 0,0 1.79736,8.154221 4.85635,10.781614 3.05901,2.62739 9.40288,4.00055 9.40288,4.00055 z"
         id="path3850"
         inkscape:connector-curvature="0" />
      <path
         inkscape:transform-center-y="-1.542398"
         inkscape:transform-center-x="0.722175"
         inkscape:connector-curvature="0"
         id="path3852"
         d="m 491.78497,100.86429 c 0,0 -0.37461,-4.062793 -2.37747,-5.98579 -2.00285,-1.922984 -6.48763,-2.96533 -6.48763,-2.96533 0,0 1.15284,4.903507 3.05159,6.497437 1.89876,1.593933 5.81351,2.453683 5.81351,2.453683 z"
         style="opacity:0.27346939;fill:#ffffff;fill-opacity:1;stroke:none" />
      <path
         sodipodi:nodetypes="cscsssccssssssssc"
         inkscape:connector-curvature="0"
         id="path3854"
         d="m 544.10618,458.64163 c 0,0 -0.53984,-161.77312 1.16076,-188.27727 1.6962,-26.43571 4.92651,-48.92964 4.76718,-48.92964 0,0 -2.56124,-16.4334 -4.04323,-25.72163 -0.35543,-2.22762 1.06307,-33.93966 1.52867,-39.09452 0.54727,-6.05921 -0.30613,-23.3838 -0.41946,-30.90929 -0.4937,-32.782988 2.60546,-65.956144 2.60546,-65.956144 l -46.24819,-0.505075 c 0,0 -0.0936,14.599896 -0.36383,34.488701 -0.0629,4.62504 -1.80826,8.525938 -1.89128,13.605908 -0.11753,7.19267 1.41667,15.73414 1.25365,23.27174 -0.71649,33.12757 -1.90097,66.37652 -3.80554,71.53228 -2.1058,5.70049 3.34293,8.85225 3.45468,24.51078 0.27312,38.2694 -0.088,105.1813 -0.28663,112.55605 -0.1676,6.22172 -0.41151,26.40575 -0.12771,32.07321 0.24004,4.79334 -0.79256,15.49434 -1.13523,39.12719 -0.22957,15.83126 2.05504,48.22771 2.05504,48.22771"
         style="opacity:0.23000004;fill:#ffffff;fill-opacity:1;stroke:none" />
      <path
         style="opacity:0.23000004;fill:#ffffff;fill-opacity:1;stroke:none"
         d="m 512.74335,458.64163 c 0,0 -0.079,-161.77312 0.16978,-188.27727 0.2481,-26.43571 0.72057,-48.92964 0.69727,-48.92964 0,0 -0.37462,-16.4334 -0.59138,-25.72163 -0.052,-2.22762 0.15548,-33.93966 0.22359,-39.09452 0.08,-6.05921 -0.0448,-23.3838 -0.0614,-30.90929 -0.0722,-32.782988 0.38108,-65.956144 0.38108,-65.956144 l -6.76448,-0.505075 c 0,0 -0.0137,14.599896 -0.0532,34.488701 -0.009,4.62504 -0.26449,8.525938 -0.27663,13.605908 -0.0172,7.19267 0.2072,15.73414 0.18336,23.27174 -0.10479,33.12757 -0.27804,66.37652 -0.55662,71.53228 -0.308,5.70049 0.48896,8.85225 0.50531,24.51078 0.04,38.2694 -0.0128,105.1813 -0.0419,112.55605 -0.0245,6.22172 -0.0602,26.40575 -0.0187,32.07321 0.0351,4.79334 -0.11593,15.49434 -0.16605,39.12719 -0.0336,15.83126 0.30058,48.22771 0.30058,48.22771"
         id="path3856"
         inkscape:connector-curvature="0"
         sodipodi:nodetypes="cscsssccssssssssc" />
    </g>
    <path
       style="fill:#5b7a53;fill-opacity:1;stroke:#000000;stroke-width:0.99999994000000003;stroke-linecap:round;stroke-linejoin:round;stroke-miterlimit:4;stroke-opacity:1;stroke-dasharray:none"
       d="m 83.718015,459.35591 c 0,0 -0.564535,-167.90248 0.376364,-194.33819 0.940879,-26.43571 -3.010848,-42.86872 -3.010848,-42.86872 0,0 1.881778,-1.78619 2.540388,-11.07442 0.913927,-12.88862 0.282268,-151.112234 0.282268,-151.112234 l 17.876923,1e-6 c 0,0 0.37634,131.464073 1.50541,153.612913 1.12907,22.14884 -0.90145,115.9603 -0.77703,126.35254 0.0745,6.22172 1.65495,18.54861 1.52883,24.21607 -0.10662,4.79334 -1.11985,23.35148 -0.96756,46.98433 0.10197,15.83126 -0.91331,48.22771 -0.91331,48.22771"
       id="path4115"
       inkscape:connector-curvature="0"
       sodipodi:nodetypes="cscsccssssc" />
    <path
       sodipodi:nodetypes="cscsccssssc"
       inkscape:connector-curvature="0"
       id="path4117"
       d="m 85.079683,459.35591 c 0,0 -0.360625,-167.90248 0.240402,-194.33819 0.601027,-26.43571 -1.923283,-42.86872 -1.923283,-42.86872 0,0 1.202054,-1.78619 1.62278,-11.07442 C 85.603389,198.18596 85.19982,59.962346 85.19982,59.962346 l 11.41952,1e-6 c 0,0 0.240402,131.464073 0.961631,153.612913 0.72125,22.14884 -0.575832,115.9603 -0.496375,126.35254 0.0476,6.22172 1.057187,18.54861 0.976609,24.21607 -0.06812,4.79334 -0.715348,23.35148 -0.618057,46.98433 0.06516,15.83126 -0.583406,48.22771 -0.583406,48.22771"
       style="opacity:0.23673467;fill:#ffffff;fill-opacity:1;stroke:none" />
    <path
       style="opacity:0.23673467;fill:#ffffff;fill-opacity:1;stroke:none"
       d="m 86.321085,459.35591 c 0,0 -0.05627,-167.90248 0.03744,-194.33819 0.09372,-26.43571 -0.300101,-42.86872 -0.300101,-42.86872 0,0 0.187642,-1.78619 0.253201,-11.07442 0.09118,-12.88862 0.02814,-151.112234 0.02814,-151.112234 l 1.781779,1e-6 c 0,0 0.03744,131.464073 0.149987,153.612913 0.112543,22.14884 -0.08991,115.9603 -0.07743,126.35254 0.0085,6.22172 0.165007,18.54861 0.152314,24.21607 -0.01058,4.79334 -0.111697,23.35148 -0.09647,46.98433 0.01058,15.83126 -0.09096,48.22771 -0.09096,48.22771"
       id="path4119"
       inkscape:connector-curvature="0"
       sodipodi:nodetypes="cscsccssssc" />
    <g
       id="g4008"
       transform="translate(-6.565992,-2.0203051)">
      <path
         sodipodi:nodetypes="cscsccssssc"
         inkscape:connector-curvature="0"
         id="path3029"
         d="m 132.87177,458.64163 c 0,0 -1.91746,-167.90248 1.27831,-194.33819 3.19578,-26.43571 -10.22647,-42.86872 -10.22647,-42.86872 0,0 6.39155,-1.78619 8.62859,-11.07442 3.10419,-12.88862 0.95873,-151.11224 0.95873,-151.11224 l 60.7197,10e-7 c 0,0 1.27831,131.464079 5.11324,153.612919 3.83493,22.14884 -3.06184,115.9603 -2.63927,126.35254 0.25299,6.22172 5.62116,18.54861 5.19277,24.21607 -0.36233,4.79334 -3.80364,23.35148 -3.28637,46.98433 0.34652,15.83126 -3.10206,48.22771 -3.10206,48.22771"
         style="fill:#548f47;fill-opacity:1;stroke:#000000;stroke-width:2;stroke-linecap:round;stroke-linejoin:round;stroke-miterlimit:4;stroke-opacity:1;stroke-dasharray:none" />
      <path
         style="opacity:0.23673467;fill:#ffffff;fill-opacity:1;stroke:none"
         d="m 137.49671,458.64163 c 0,0 -1.22484,-167.90248 0.81656,-194.33819 2.04143,-26.43571 -6.53251,-42.86872 -6.53251,-42.86872 0,0 4.08283,-1.78619 5.5118,-11.07442 1.98293,-12.88862 0.61244,-151.11224 0.61244,-151.11224 l 38.78687,10e-7 c 0,0 0.81656,131.464079 3.26626,153.612919 2.44971,22.14884 -1.95585,115.9603 -1.68594,126.35254 0.16162,6.22172 3.59072,18.54861 3.31708,24.21607 -0.23146,4.79334 -2.42971,23.35148 -2.09929,46.98433 0.22136,15.83126 -1.98155,48.22771 -1.98155,48.22771"
         id="path3805"
         inkscape:connector-curvature="0"
         sodipodi:nodetypes="cscsccssssc" />
      <path
         sodipodi:nodetypes="cscsccssssc"
         inkscape:connector-curvature="0"
         id="path3807"
         d="m 141.71323,458.64163 c 0,0 -0.19112,-167.90248 0.12741,-194.33819 0.31852,-26.43571 -1.01927,-42.86872 -1.01927,-42.86872 0,0 0.63704,-1.78619 0.86001,-11.07442 0.30939,-12.88862 0.0956,-151.11224 0.0956,-151.11224 l 6.05189,10e-7 c 0,0 0.12741,131.464079 0.50963,153.612919 0.38223,22.14884 -0.30517,115.9603 -0.26305,126.35254 0.0252,6.22172 0.56026,18.54861 0.51756,24.21607 -0.0361,4.79334 -0.37911,23.35148 -0.32755,46.98433 0.0345,15.83126 -0.30918,48.22771 -0.30918,48.22771"
         style="opacity:0.23673467;fill:#ffffff;fill-opacity:1;stroke:none" />
      <path
         inkscape:connector-curvature="0"
         id="path3801"
         d="m 125.4248,221.97347 c 0,0 -4.04062,-10.10153 -10.35407,-13.38453 -6.31345,-3.28299 -17.930205,-2.27284 -17.930205,-2.27284 0,0 6.565995,11.61676 12.374365,14.14214 5.80838,2.52538 15.90991,1.51523 15.90991,1.51523 z"
         style="fill:#33b300;fill-opacity:1;stroke:#000000;stroke-width:2;stroke-linecap:round;stroke-linejoin:round;stroke-miterlimit:4;stroke-opacity:1;stroke-dasharray:none" />
      <path
         style="opacity:0.27346939;fill:#ffffff;fill-opacity:1;stroke:none"
         d="m 118.20685,216.81903 c 0,0 -2.4958,-6.04377 -6.39548,-8.008 -3.89968,-1.96422 -11.07508,-1.35984 -11.07508,-1.35984 0,0 4.05566,6.95033 7.64336,8.46127 3.58771,1.51094 9.8272,0.90657 9.8272,0.90657 z"
         id="path3809"
         inkscape:connector-curvature="0" />
      <path
         style="fill:#33b300;fill-opacity:1;stroke:#000000;stroke-width:2;stroke-linecap:round;stroke-linejoin:round;stroke-miterlimit:4;stroke-opacity:1;stroke-dasharray:none"
         d="m 202.14052,361.97347 c 0,0 4.04062,-10.10153 10.35407,-13.38453 6.31345,-3.28299 17.93021,-2.27284 17.93021,-2.27284 0,0 -6.566,11.61676 -12.37437,14.14214 -5.80838,2.52538 -15.90991,1.51523 -15.90991,1.51523 z"
         id="path3828"
         inkscape:connector-curvature="0" />
      <path
         inkscape:connector-curvature="0"
         id="path3830"
         d="m 209.35847,356.81903 c 0,0 2.4958,-6.04377 6.39548,-8.008 3.89968,-1.96422 11.07509,-1.35984 11.07509,-1.35984 0,0 -4.05567,6.95033 -7.64337,8.46127 -3.58771,1.51094 -9.8272,0.90657 -9.8272,0.90657 z"
         style="opacity:0.27346939;fill:#ffffff;fill-opacity:1;stroke:none" />
    </g>
    <path
       sodipodi:nodetypes="cscsccssssc"
       inkscape:connector-curvature="0"
       id="path4139"
       d="m 661.72043,464.35591 c 0,0 -0.45637,-167.90248 0.30425,-194.33819 0.7606,-26.43571 -2.43396,-42.86872 -2.43396,-42.86872 0,0 1.52122,-1.78619 2.05364,-11.07442 0.73881,-12.88862 0.22818,-151.112234 0.22818,-151.112234 l 14.45164,10e-7 c 0,0 0.30424,131.464073 1.21697,153.612913 0.91274,22.14884 -0.72872,115.9603 -0.62815,126.35254 0.0602,6.22172 1.33786,18.54861 1.2359,24.21607 -0.0862,4.79334 -0.90528,23.35148 -0.78216,46.98433 0.0824,15.83126 -0.73832,48.22771 -0.73832,48.22771"
       style="fill:#425f3c;fill-opacity:1;stroke:#000000;stroke-width:0.99999994000000003;stroke-linecap:round;stroke-linejoin:round;stroke-miterlimit:4;stroke-opacity:1;stroke-dasharray:none" />
    <path
       style="opacity:0.23673467;fill:#ffffff;fill-opacity:1;stroke:none"
       d="m 662.82119,464.35591 c 0,0 -0.29152,-167.90248 0.19434,-194.33819 0.48587,-26.43571 -1.55477,-42.86872 -1.55477,-42.86872 0,0 0.97173,-1.78619 1.31185,-11.07442 0.47195,-12.88862 0.1457,-151.112234 0.1457,-151.112234 l 9.2315,10e-7 c 0,0 0.19434,131.464073 0.77738,153.612913 0.58306,22.14884 -0.4655,115.9603 -0.40127,126.35254 0.0385,6.22172 0.85463,18.54861 0.78949,24.21607 -0.0551,4.79334 -0.57828,23.35148 -0.49963,46.98433 0.0527,15.83126 -0.47163,48.22771 -0.47163,48.22771"
       id="path4141"
       inkscape:connector-curvature="0"
       sodipodi:nodetypes="cscsccssssc" />
    <path
       sodipodi:nodetypes="cscsccssssc"
       inkscape:connector-curvature="0"
       id="path4143"
       d="m 663.82474,464.35591 c 0,0 -0.0455,-167.90248 0.0303,-194.33819 0.0758,-26.43571 -0.2426,-42.86872 -0.2426,-42.86872 0,0 0.15169,-1.78619 0.20468,-11.07442 0.0737,-12.88862 0.0227,-151.112234 0.0227,-151.112234 l 1.44038,10e-7 c 0,0 0.0303,131.464073 0.12125,153.612913 0.091,22.14884 -0.0727,115.9603 -0.0626,126.35254 0.007,6.22172 0.13339,18.54861 0.12313,24.21607 -0.009,4.79334 -0.0903,23.35148 -0.078,46.98433 0.009,15.83126 -0.0735,48.22771 -0.0735,48.22771"
       style="opacity:0.23673467;fill:#ffffff;fill-opacity:1;stroke:none" />
    <g
       id="g4477"
       transform="matrix(0.93093094,0,0,0.93093094,24.592791,-21.084082)"
       clip-path="url(#clipPath4523)"
       inkscape:export-filename="/home/olle/projekt/android/HappyBirds_trunk/res/drawable/background2_thumbnail.png"
       inkscape:export-xdpi="44.999996"
       inkscape:export-ydpi="44.999996">
      <g
         id="g4215"
         transform="matrix(1.1021868,0,0,1.1022886,-100.6944,-590.09954)">
        <path
           sodipodi:nodetypes="cscsccssssc"
           inkscape:connector-curvature="0"
           id="path4217"
           d="m 240.88324,461.49877 c 0,0 -0.26686,-167.90248 0.17791,-194.33819 0.44476,-26.43571 -1.42325,-42.86872 -1.42325,-42.86872 0,0 0.88953,-1.78619 1.20086,-11.07442 0.43202,-12.88862 0.13343,-151.112237 0.13343,-151.112237 l 8.45055,10e-7 c 0,0 0.1779,131.464076 0.71162,153.612916 0.53372,22.14884 -0.42612,115.9603 -0.36731,126.35254 0.0352,6.22172 0.78231,18.54861 0.72269,24.21607 -0.0504,4.79334 -0.52936,23.35148 -0.45737,46.98433 0.0482,15.83126 -0.43173,48.22771 -0.43173,48.22771"
           style="opacity:0.6857143;fill:#548f47;fill-opacity:1;stroke:#000000;stroke-width:0.97455698;stroke-linecap:round;stroke-linejoin:round;stroke-miterlimit:4;stroke-opacity:1;stroke-dasharray:none" />
        <path
           style="opacity:0.23673467;fill:#ffffff;fill-opacity:1;stroke:none"
           d="m 241.52691,461.49877 c 0,0 -0.17047,-167.90248 0.11364,-194.33819 0.28411,-26.43571 -0.90915,-42.86872 -0.90915,-42.86872 0,0 0.56822,-1.78619 0.7671,-11.07442 0.27597,-12.88862 0.0852,-151.112237 0.0852,-151.112237 l 5.39809,10e-7 c 0,0 0.11364,131.464076 0.45457,153.612916 0.34094,22.14884 -0.2722,115.9603 -0.23464,126.35254 0.0225,6.22172 0.49974,18.54861 0.46165,24.21607 -0.0322,4.79334 -0.33815,23.35148 -0.29216,46.98433 0.0308,15.83126 -0.27578,48.22771 -0.27578,48.22771"
           id="path4219"
           inkscape:connector-curvature="0"
           sodipodi:nodetypes="cscsccssssc" />
        <path
           sodipodi:nodetypes="cscsccssssc"
           inkscape:connector-curvature="0"
           id="path4221"
           d="m 242.11373,461.49877 c 0,0 -0.0266,-167.90248 0.0177,-194.33819 0.0443,-26.43571 -0.14186,-42.86872 -0.14186,-42.86872 0,0 0.0887,-1.78619 0.11969,-11.07442 0.0431,-12.88862 0.0133,-151.112237 0.0133,-151.112237 l 0.84226,10e-7 c 0,0 0.0177,131.464076 0.0709,153.612916 0.0532,22.14884 -0.0425,115.9603 -0.0366,126.35254 0.004,6.22172 0.078,18.54861 0.072,24.21607 -0.005,4.79334 -0.0528,23.35148 -0.0456,46.98433 0.005,15.83126 -0.043,48.22771 -0.043,48.22771"
           style="opacity:0.23673467;fill:#ffffff;fill-opacity:1;stroke:none" />
      </g>
      <rect
         y="-502.35385"
         x="-29.704464"
         height="385.80099"
         width="771.53076"
         id="rect4223"
         style="fill:#dc4fa8;fill-opacity:1;stroke:none" />
      <rect
         style="fill:#e27786;fill-opacity:1;stroke:none"
         id="rect4225"
         width="771.53076"
         height="175.35335"
         x="-29.704464"
         y="-502.91055" />
      <rect
         y="-502.91055"
         x="-29.704464"
         height="45.076233"
         width="771.53076"
         id="rect4227"
         style="fill:#e78d99;fill-opacity:1;stroke:none" />
      <path
         style="fill:#5c7956;fill-opacity:1;stroke:#000000;stroke-width:1.07419348;stroke-linecap:round;stroke-linejoin:round;stroke-miterlimit:4;stroke-opacity:1;stroke-dasharray:none"
         d="m 261.54705,-79.032666 c 0,0 -0.40046,-185.076994 0.26698,-214.216774 0.66742,-29.13978 -2.13577,-47.2537 -2.13577,-47.2537 0,0 1.33485,-1.9689 1.80205,-12.20721 0.6483,-14.20697 0.20022,-166.56929 0.20022,-166.56929 l 12.68117,0 c 0,0 0.26696,144.91135 1.06787,169.32577 0.80093,24.41441 -0.63944,127.82171 -0.55119,139.27696 0.0528,6.85813 1.17396,20.44592 1.0845,26.6931 -0.0756,5.28364 -0.79438,25.74007 -0.68635,51.79029 0.0723,17.45062 -0.64787,53.160854 -0.64787,53.160854"
         id="path4229"
         inkscape:connector-curvature="0"
         sodipodi:nodetypes="cscsccssssc" />
      <path
         sodipodi:nodetypes="cscsccssssc"
         inkscape:connector-curvature="0"
         id="path4231"
         d="m 262.51296,-79.032663 c 0,0 -0.25581,-185.076987 0.17054,-214.216767 0.42634,-29.13978 -1.36431,-47.2537 -1.36431,-47.2537 0,0 0.8527,-1.9689 1.15114,-12.20721 0.41413,-14.20698 0.12785,-166.56929 0.12785,-166.56929 l 8.10056,0 c 0,0 0.17053,144.91135 0.68214,169.32576 0.51162,24.41442 -0.40848,127.82172 -0.35212,139.27697 0.0337,6.85813 0.74993,20.44592 0.69277,26.69309 -0.0483,5.28365 -0.50743,25.74007 -0.43843,51.79029 0.0462,17.45062 -0.41383,53.160857 -0.41383,53.160857"
         style="opacity:0.23673467;fill:#ffffff;fill-opacity:1;stroke:none" />
      <path
         style="opacity:0.23673467;fill:#ffffff;fill-opacity:1;stroke:none"
         d="m 263.39356,-79.032663 c 0,0 -0.0399,-185.076987 0.0266,-214.216767 0.0665,-29.13978 -0.21288,-47.2537 -0.21288,-47.2537 0,0 0.1331,-1.9689 0.17961,-12.20721 0.0647,-14.20698 0.0199,-166.56929 0.0199,-166.56929 l 1.26392,0 c 0,0 0.0266,144.91135 0.10636,169.32576 0.0798,24.41442 -0.0638,127.82172 -0.0549,139.27697 0.006,6.85813 0.11706,20.44592 0.10802,26.69309 -0.008,5.28365 -0.0793,25.74007 -0.0684,51.79029 0.008,17.45062 -0.0645,53.160857 -0.0645,53.160857"
         id="path4233"
         inkscape:connector-curvature="0"
         sodipodi:nodetypes="cscsccssssc" />
      <path
         style="fill:#476940;fill-opacity:1;stroke:#000000;stroke-width:1.07419348;stroke-linecap:round;stroke-linejoin:round;stroke-miterlimit:4;stroke-opacity:1;stroke-dasharray:none"
         d="m 422.1395,-84.544109 c 0,0 -0.62223,-185.076991 0.41482,-214.216771 1.03702,-29.13978 -3.31852,-47.2537 -3.31852,-47.2537 0,0 2.07407,-1.9689 2.79998,-12.20721 1.00733,-14.20698 0.31112,-166.5693 0.31112,-166.5693 l 19.7037,0 c 0,0 0.4148,144.91136 1.65925,169.32577 1.24444,24.41442 -0.99356,127.82172 -0.85644,139.27697 0.0821,6.85813 1.82408,20.44592 1.68506,26.69309 -0.11751,5.28365 -1.23428,25.74008 -1.06642,51.7903 0.11238,17.45061 -1.00665,53.160851 -1.00665,53.160851"
         id="path4235"
         inkscape:connector-curvature="0"
         sodipodi:nodetypes="cscsccssssc" />
      <path
         sodipodi:nodetypes="cscsccssssc"
         inkscape:connector-curvature="0"
         id="path4237"
         d="m 423.64031,-84.544106 c 0,0 -0.39748,-185.076984 0.26497,-214.216764 0.66245,-29.13978 -2.11981,-47.2537 -2.11981,-47.2537 0,0 1.32488,-1.9689 1.7886,-12.20721 0.64346,-14.20698 0.19865,-166.5693 0.19865,-166.5693 l 12.58644,0 c 0,0 0.26498,144.91136 1.0599,169.32577 0.79495,24.41441 -0.63467,127.82171 -0.54709,139.27696 0.0525,6.85813 1.16522,20.44592 1.0764,26.6931 -0.0751,5.28364 -0.78845,25.74007 -0.68121,51.79029 0.0719,17.45062 -0.64302,53.160854 -0.64302,53.160854"
         style="opacity:0.23673467;fill:#ffffff;fill-opacity:1;stroke:none" />
      <path
         style="opacity:0.23673467;fill:#ffffff;fill-opacity:1;stroke:none"
         d="m 425.00857,-84.544106 c 0,0 -0.062,-185.076984 0.0412,-214.216764 0.10327,-29.13978 -0.33077,-47.2537 -0.33077,-47.2537 0,0 0.20682,-1.9689 0.27908,-12.20721 0.10052,-14.20698 0.031,-166.5693 0.031,-166.5693 l 1.96385,0 c 0,0 0.0412,144.91136 0.16532,169.32577 0.12404,24.41441 -0.0991,127.82171 -0.0853,139.27696 0.009,6.85813 0.18187,20.44592 0.16788,26.6931 -0.0117,5.28364 -0.12311,25.74007 -0.10637,51.79029 0.0117,17.45062 -0.10029,53.160854 -0.10029,53.160854"
         id="path4239"
         inkscape:connector-curvature="0"
         sodipodi:nodetypes="cscsccssssc" />
      <path
         style="fill:#698064;fill-opacity:1;stroke:#000000;stroke-width:1.07419336;stroke-linecap:round;stroke-linejoin:round;stroke-miterlimit:4;stroke-opacity:1;stroke-dasharray:none"
         d="m 346.68672,-82.508193 c 0,0 1.1994,-184.912197 0.99416,-214.216767 -0.18049,-25.79934 -1.28809,-45.02674 -1.28809,-45.02674 0,0 -5.69339,-54.30244 -3.95367,-64.54075 2.41413,-14.20698 4.74465,-116.46272 4.74465,-116.46272 l 47.22163,0 c 0,0 0.9941,144.91135 3.97653,169.32577 2.98242,24.41441 -2.38117,127.82172 -2.05254,139.27696 0.19671,6.85813 4.37156,20.44592 4.0384,26.6931 -0.28164,5.28365 -2.95807,25.74007 -2.55578,51.79029 0.26934,17.45062 -2.41251,53.160857 -2.41251,53.160857"
         id="path4241"
         inkscape:connector-curvature="0"
         sodipodi:nodetypes="cscsccssssc" />
      <path
         sodipodi:nodetypes="cscsccssssc"
         inkscape:connector-curvature="0"
         id="path4243"
         d="m 350.28354,-82.50819 c 0,0 -0.95258,-185.07699 0.63502,-214.21677 1.58761,-29.13978 -0.19279,-36.67564 -0.19279,-36.67564 0,0 -3.48986,-45.67297 -2.37824,-55.91128 1.54211,-14.20698 2.25364,-133.44328 2.25364,-133.44328 l 30.16448,0 c 0,0 0.63503,144.91135 2.54015,169.32577 1.90517,24.41441 -1.52105,127.82171 -1.31116,139.27696 0.12571,6.85813 2.79254,20.44592 2.57969,26.6931 -0.17993,5.28364 -1.88958,25.74007 -1.63259,51.79029 0.17211,17.45061 -1.54106,53.16085 -1.54106,53.16085"
         style="opacity:0.23673467;fill:#ffffff;fill-opacity:1;stroke:none" />
      <path
         style="opacity:0.23673467;fill:#ffffff;fill-opacity:1;stroke:none"
         d="m 353.56268,-82.50819 c 0,0 -0.14863,-185.07699 0.0989,-214.21677 0.24755,-29.13978 -0.79271,-47.2537 -0.79271,-47.2537 0,0 -1.05954,-11.99021 -0.88636,-22.22852 0.24084,-14.20698 0.0744,-166.56929 0.0744,-166.56929 l 6.26174,10.02131 c 0,0 0.0989,144.91135 0.39619,169.32577 0.29727,24.41441 -0.2375,127.82171 -0.20452,139.27696 0.0224,6.85813 0.43586,20.44592 0.40233,26.6931 -0.028,5.28364 -0.29505,25.74007 -0.25481,51.79029 0.028,17.45061 -0.24028,53.16085 -0.24028,53.16085"
         id="path4245"
         inkscape:connector-curvature="0"
         sodipodi:nodetypes="cscsccssssc" />
      <g
         transform="matrix(1.1021868,0,0,1.1022886,-27.47771,-590.09954)"
         id="g4247">
        <path
           style="fill:#548f47;fill-opacity:1;stroke:#000000;stroke-width:1.9491142;stroke-linecap:round;stroke-linejoin:round;stroke-miterlimit:4;stroke-opacity:1;stroke-dasharray:none"
           d="m 560.36878,458.64163 c 0,0 -0.81488,-161.77312 1.75215,-188.27727 2.5604,-26.43571 7.43651,-48.92964 7.19601,-48.92964 0,0 -3.86616,-16.4334 -6.10321,-25.72163 -0.53652,-2.22762 1.6047,-33.93966 2.3075,-39.09452 0.8261,-6.05921 -0.4621,-23.3838 -0.63317,-30.90929 -0.74523,-32.782988 3.93293,-65.956144 3.93293,-65.956144 l -69.81107,-0.505075 c 0,0 -0.1412,14.599896 -0.54918,34.488701 -0.0949,4.62504 -2.72956,8.525938 -2.85487,13.605908 -0.17742,7.19267 2.13845,15.73414 1.89236,23.27174 -1.08153,33.12757 -2.86948,66.37652 -5.74441,71.53228 -3.17868,5.70049 5.04611,8.85225 5.2148,24.51078 0.41227,38.2694 -0.1328,105.1813 -0.43267,112.55605 -0.25299,6.22172 -0.62116,26.40575 -0.19277,32.07321 0.36233,4.79334 -1.19636,15.49434 -1.71363,39.12719 -0.34652,15.83126 3.10206,48.22771 3.10206,48.22771"
           id="path4249"
           inkscape:connector-curvature="0"
           sodipodi:nodetypes="cscsssccssssssssc" />
        <path
           style="fill:#33b300;fill-opacity:1;stroke:#000000;stroke-width:1.94911397;stroke-linecap:round;stroke-linejoin:round;stroke-miterlimit:4;stroke-opacity:1;stroke-dasharray:none"
           d="m 569.85949,221.00111 c 0,0 3.31238,-8.18869 8.48797,-10.85001 5.17559,-2.66132 14.69867,-1.84245 14.69867,-1.84245 0,0 -5.38261,9.41699 -10.14415,11.46415 -4.76155,2.04717 -13.04249,1.22831 -13.04249,1.22831 z"
           id="path4251"
           inkscape:connector-curvature="0" />
        <path
           inkscape:connector-curvature="0"
           id="path4253"
           d="m 575.77656,216.82272 c 0,0 2.04598,-4.89931 5.24283,-6.49159 3.19684,-1.59227 9.07903,-1.10233 9.07903,-1.10233 0,0 -3.32471,5.6342 -6.26581,6.85902 -2.9411,1.22483 -8.05605,0.7349 -8.05605,0.7349 z"
           style="opacity:0.27346939;fill:#ffffff;fill-opacity:1;stroke:none" />
        <path
           inkscape:connector-curvature="0"
           id="path4255"
           d="m 491.10003,206.25918 c 0,0 -4.04062,-10.10153 -10.35407,-13.38453 -6.31345,-3.28299 -17.93021,-2.27284 -17.93021,-2.27284 0,0 6.566,11.61676 12.37437,14.14214 5.80838,2.52538 15.90991,1.51523 15.90991,1.51523 z"
           style="fill:#33b300;fill-opacity:1;stroke:#000000;stroke-width:1.9491142;stroke-linecap:round;stroke-linejoin:round;stroke-miterlimit:4;stroke-opacity:1;stroke-dasharray:none" />
        <path
           style="opacity:0.27346939;fill:#ffffff;fill-opacity:1;stroke:none"
           d="m 483.88208,201.10474 c 0,0 -2.4958,-6.04377 -6.39548,-8.008 -3.89968,-1.96422 -11.07509,-1.35984 -11.07509,-1.35984 0,0 4.05567,6.95033 7.64337,8.46127 3.58771,1.51094 9.8272,0.90657 9.8272,0.90657 z"
           id="path4257"
           inkscape:connector-curvature="0" />
        <path
           style="fill:#33b300;fill-opacity:1;stroke:#000000;stroke-width:1.9491142;stroke-linecap:round;stroke-linejoin:round;stroke-miterlimit:4;stroke-opacity:1;stroke-dasharray:none"
           d="m 495.20421,105.32221 c 0,0 -0.54645,-6.765023 -3.76947,-9.939203 -3.22303,-3.174179 -10.48976,-4.842961 -10.48976,-4.842961 0,0 1.79736,8.154221 4.85635,10.781614 3.05901,2.62739 9.40288,4.00055 9.40288,4.00055 z"
           id="path4259"
           inkscape:connector-curvature="0" />
        <path
           inkscape:transform-center-y="-1.542398"
           inkscape:transform-center-x="0.722175"
           inkscape:connector-curvature="0"
           id="path4261"
           d="m 491.78497,100.86429 c 0,0 -0.37461,-4.062793 -2.37747,-5.98579 -2.00285,-1.922984 -6.48763,-2.96533 -6.48763,-2.96533 0,0 1.15284,4.903507 3.05159,6.497437 1.89876,1.593933 5.81351,2.453683 5.81351,2.453683 z"
           style="opacity:0.27346939;fill:#ffffff;fill-opacity:1;stroke:none" />
        <path
           sodipodi:nodetypes="cscsssccssssssssc"
           inkscape:connector-curvature="0"
           id="path4263"
           d="m 544.10618,458.64163 c 0,0 -0.53984,-161.77312 1.16076,-188.27727 1.6962,-26.43571 4.92651,-48.92964 4.76718,-48.92964 0,0 -2.56124,-16.4334 -4.04323,-25.72163 -0.35543,-2.22762 1.06307,-33.93966 1.52867,-39.09452 0.54727,-6.05921 -0.30613,-23.3838 -0.41946,-30.90929 -0.4937,-32.782988 2.60546,-65.956144 2.60546,-65.956144 l -46.24819,-0.505075 c 0,0 -0.0936,14.599896 -0.36383,34.488701 -0.0629,4.62504 -1.80826,8.525938 -1.89128,13.605908 -0.11753,7.19267 1.41667,15.73414 1.25365,23.27174 -0.71649,33.12757 -1.90097,66.37652 -3.80554,71.53228 -2.1058,5.70049 3.34293,8.85225 3.45468,24.51078 0.27312,38.2694 -0.088,105.1813 -0.28663,112.55605 -0.1676,6.22172 -0.41151,26.40575 -0.12771,32.07321 0.24004,4.79334 -0.79256,15.49434 -1.13523,39.12719 -0.22957,15.83126 2.05504,48.22771 2.05504,48.22771"
           style="opacity:0.23000004;fill:#ffffff;fill-opacity:1;stroke:none" />
        <path
           style="opacity:0.23000004;fill:#ffffff;fill-opacity:1;stroke:none"
           d="m 512.74335,458.64163 c 0,0 -0.079,-161.77312 0.16978,-188.27727 0.2481,-26.43571 0.72057,-48.92964 0.69727,-48.92964 0,0 -0.37462,-16.4334 -0.59138,-25.72163 -0.052,-2.22762 0.15548,-33.93966 0.22359,-39.09452 0.08,-6.05921 -0.0448,-23.3838 -0.0614,-30.90929 -0.0722,-32.782988 0.38108,-65.956144 0.38108,-65.956144 l -6.76448,-0.505075 c 0,0 -0.0137,14.599896 -0.0532,34.488701 -0.009,4.62504 -0.26449,8.525938 -0.27663,13.605908 -0.0172,7.19267 0.2072,15.73414 0.18336,23.27174 -0.10479,33.12757 -0.27804,66.37652 -0.55662,71.53228 -0.308,5.70049 0.48896,8.85225 0.50531,24.51078 0.04,38.2694 -0.0128,105.1813 -0.0419,112.55605 -0.0245,6.22172 -0.0602,26.40575 -0.0187,32.07321 0.0351,4.79334 -0.11593,15.49434 -0.16605,39.12719 -0.0336,15.83126 0.30058,48.22771 0.30058,48.22771"
           id="path4265"
           inkscape:connector-curvature="0"
           sodipodi:nodetypes="cscsssccssssssssc" />
      </g>
      <path
         style="fill:#5b7a53;fill-opacity:1;stroke:#000000;stroke-width:1.07419348;stroke-linecap:round;stroke-linejoin:round;stroke-miterlimit:4;stroke-opacity:1;stroke-dasharray:none"
         d="m 64.79518,-83.756766 c 0,0 -0.622223,-185.076994 0.414823,-214.216774 1.037025,-29.13978 -3.318516,-47.2537 -3.318516,-47.2537 0,0 2.07407,-1.9689 2.799982,-12.20721 1.007318,-14.20697 0.311112,-166.5693 0.311112,-166.5693 l 19.703719,2e-5 c 0,0 0.414797,144.91134 1.659243,169.32576 1.244446,24.41441 -0.993566,127.82171 -0.856432,139.27696 0.08211,6.85813 1.824064,20.44592 1.685056,26.6931 -0.117515,5.28364 -1.234283,25.74007 -1.066431,51.79029 0.11239,17.45062 -1.006639,53.160854 -1.006639,53.160854"
         id="path4267"
         inkscape:connector-curvature="0"
         sodipodi:nodetypes="cscsccssssc" />
      <path
         sodipodi:nodetypes="cscsccssssc"
         inkscape:connector-curvature="0"
         id="path4269"
         d="m 66.295993,-83.756764 c 0,0 -0.397476,-185.076986 0.264968,-214.216766 0.662444,-29.13978 -2.119818,-47.2537 -2.119818,-47.2537 0,0 1.324889,-1.9689 1.788607,-12.20721 0.643465,-14.20698 0.198656,-166.56929 0.198656,-166.56929 l 12.586455,10e-6 c 0,0 0.264966,144.91134 1.059896,169.32575 0.794952,24.41442 -0.634683,127.82172 -0.547103,139.27696 0.05246,6.85814 1.165221,20.44593 1.076406,26.6931 -0.07506,5.28365 -0.788449,25.74007 -0.681217,51.79029 0.07186,17.45062 -0.643016,53.160856 -0.643016,53.160856"
         style="opacity:0.23673467;fill:#ffffff;fill-opacity:1;stroke:none" />
      <path
         style="opacity:0.23673467;fill:#ffffff;fill-opacity:1;stroke:none"
         d="m 67.66425,-83.756764 c 0,0 -0.06202,-185.076986 0.04127,-214.216766 0.103297,-29.13978 -0.330767,-47.2537 -0.330767,-47.2537 0,0 0.206817,-1.9689 0.279075,-12.20721 0.100497,-14.20698 0.03101,-166.56929 0.03101,-166.56929 l 1.963854,10e-6 c 0,0 0.04127,144.91134 0.165313,169.32575 0.124044,24.41442 -0.0991,127.82172 -0.08534,139.27696 0.0094,6.85814 0.181869,20.44593 0.167879,26.6931 -0.01166,5.28365 -0.123111,25.74007 -0.106328,51.79029 0.01166,17.45062 -0.100255,53.160856 -0.100255,53.160856"
         id="path4271"
         inkscape:connector-curvature="0"
         sodipodi:nodetypes="cscsccssssc" />
      <g
         id="g4273"
         transform="matrix(1.1021868,0,0,1.1022886,-34.71466,-592.3265)">
        <path
           sodipodi:nodetypes="cscsccssssc"
           inkscape:connector-curvature="0"
           id="path4275"
           d="m 132.87177,458.64163 c 0,0 -1.91746,-167.90248 1.27831,-194.33819 3.19578,-26.43571 -10.22647,-42.86872 -10.22647,-42.86872 0,0 6.39155,-1.78619 8.62859,-11.07442 3.10419,-12.88862 0.95873,-151.11224 0.95873,-151.11224 l 60.7197,10e-7 c 0,0 1.27831,131.464079 5.11324,153.612919 3.83493,22.14884 -3.06184,115.9603 -2.63927,126.35254 0.25299,6.22172 5.62116,18.54861 5.19277,24.21607 -0.36233,4.79334 -3.80364,23.35148 -3.28637,46.98433 0.34652,15.83126 -3.10206,48.22771 -3.10206,48.22771"
           style="fill:#548f47;fill-opacity:1;stroke:#000000;stroke-width:1.9491142;stroke-linecap:round;stroke-linejoin:round;stroke-miterlimit:4;stroke-opacity:1;stroke-dasharray:none" />
        <path
           style="opacity:0.23673467;fill:#ffffff;fill-opacity:1;stroke:none"
           d="m 137.49671,458.64163 c 0,0 -1.22484,-167.90248 0.81656,-194.33819 2.04143,-26.43571 -6.53251,-42.86872 -6.53251,-42.86872 0,0 4.08283,-1.78619 5.5118,-11.07442 1.98293,-12.88862 0.61244,-151.11224 0.61244,-151.11224 l 38.78687,10e-7 c 0,0 0.81656,131.464079 3.26626,153.612919 2.44971,22.14884 -1.95585,115.9603 -1.68594,126.35254 0.16162,6.22172 3.59072,18.54861 3.31708,24.21607 -0.23146,4.79334 -2.42971,23.35148 -2.09929,46.98433 0.22136,15.83126 -1.98155,48.22771 -1.98155,48.22771"
           id="path4277"
           inkscape:connector-curvature="0"
           sodipodi:nodetypes="cscsccssssc" />
        <path
           sodipodi:nodetypes="cscsccssssc"
           inkscape:connector-curvature="0"
           id="path4279"
           d="m 141.71323,458.64163 c 0,0 -0.19112,-167.90248 0.12741,-194.33819 0.31852,-26.43571 -1.01927,-42.86872 -1.01927,-42.86872 0,0 0.63704,-1.78619 0.86001,-11.07442 0.30939,-12.88862 0.0956,-151.11224 0.0956,-151.11224 l 6.05189,10e-7 c 0,0 0.12741,131.464079 0.50963,153.612919 0.38223,22.14884 -0.30517,115.9603 -0.26305,126.35254 0.0252,6.22172 0.56026,18.54861 0.51756,24.21607 -0.0361,4.79334 -0.37911,23.35148 -0.32755,46.98433 0.0345,15.83126 -0.30918,48.22771 -0.30918,48.22771"
           style="opacity:0.23673467;fill:#ffffff;fill-opacity:1;stroke:none" />
        <path
           inkscape:connector-curvature="0"
           id="path4281"
           d="m 125.4248,221.97347 c 0,0 -4.04062,-10.10153 -10.35407,-13.38453 -6.31345,-3.28299 -17.930205,-2.27284 -17.930205,-2.27284 0,0 6.565995,11.61676 12.374365,14.14214 5.80838,2.52538 15.90991,1.51523 15.90991,1.51523 z"
           style="fill:#33b300;fill-opacity:1;stroke:#000000;stroke-width:1.9491142;stroke-linecap:round;stroke-linejoin:round;stroke-miterlimit:4;stroke-opacity:1;stroke-dasharray:none" />
        <path
           style="opacity:0.27346939;fill:#ffffff;fill-opacity:1;stroke:none"
           d="m 118.20685,216.81903 c 0,0 -2.4958,-6.04377 -6.39548,-8.008 -3.89968,-1.96422 -11.07508,-1.35984 -11.07508,-1.35984 0,0 4.05566,6.95033 7.64336,8.46127 3.58771,1.51094 9.8272,0.90657 9.8272,0.90657 z"
           id="path4283"
           inkscape:connector-curvature="0" />
        <path
           style="fill:#33b300;fill-opacity:1;stroke:#000000;stroke-width:1.9491142;stroke-linecap:round;stroke-linejoin:round;stroke-miterlimit:4;stroke-opacity:1;stroke-dasharray:none"
           d="m 202.14052,361.97347 c 0,0 4.04062,-10.10153 10.35407,-13.38453 6.31345,-3.28299 17.93021,-2.27284 17.93021,-2.27284 0,0 -6.566,11.61676 -12.37437,14.14214 -5.80838,2.52538 -15.90991,1.51523 -15.90991,1.51523 z"
           id="path4285"
           inkscape:connector-curvature="0" />
        <path
           inkscape:connector-curvature="0"
           id="path4287"
           d="m 209.35847,356.81903 c 0,0 2.4958,-6.04377 6.39548,-8.008 3.89968,-1.96422 11.07509,-1.35984 11.07509,-1.35984 0,0 -4.05567,6.95033 -7.64337,8.46127 -3.58771,1.51094 -9.8272,0.90657 -9.8272,0.90657 z"
           style="opacity:0.27346939;fill:#ffffff;fill-opacity:1;stroke:none" />
      </g>
      <path
         sodipodi:nodetypes="cscsccssssc"
         inkscape:connector-curvature="0"
         id="path4289"
         d="m 701.86182,-78.245323 c 0,0 -0.503,-185.076987 0.33534,-214.216767 0.83833,-29.13979 -2.68267,-47.25371 -2.68267,-47.25371 0,0 1.67666,-1.96889 2.26349,-12.2072 0.81431,-14.20698 0.2515,-166.5693 0.2515,-166.5693 l 15.9284,10e-6 c 0,0 0.33533,144.91134 1.34133,169.32576 1.00601,24.41441 -0.80318,127.82172 -0.69234,139.27696 0.0664,6.85813 1.47458,20.44592 1.3622,26.6931 -0.095,5.28364 -0.99779,25.74007 -0.86209,51.79029 0.0908,17.45062 -0.81377,53.160857 -0.81377,53.160857"
         style="fill:#425f3c;fill-opacity:1;stroke:#000000;stroke-width:1.07419348;stroke-linecap:round;stroke-linejoin:round;stroke-miterlimit:4;stroke-opacity:1;stroke-dasharray:none" />
      <path
         style="opacity:0.23673467;fill:#ffffff;fill-opacity:1;stroke:none"
         d="m 703.07507,-78.245321 c 0,0 -0.32131,-185.076989 0.21419,-214.216769 0.53552,-29.13978 -1.71364,-47.2537 -1.71364,-47.2537 0,0 1.07103,-1.96889 1.4459,-12.2072 0.52018,-14.20698 0.16059,-166.5693 0.16059,-166.5693 l 10.17484,10e-6 c 0,0 0.2142,144.91134 0.85681,169.32576 0.64265,24.41441 -0.51306,127.82171 -0.44227,139.27696 0.0424,6.85813 0.94196,20.44592 0.87017,26.6931 -0.0607,5.28364 -0.63738,25.74006 -0.55069,51.79029 0.0581,17.45061 -0.51982,53.160849 -0.51982,53.160849"
         id="path4291"
         inkscape:connector-curvature="0"
         sodipodi:nodetypes="cscsccssssc" />
      <path
         sodipodi:nodetypes="cscsccssssc"
         inkscape:connector-curvature="0"
         id="path4293"
         d="m 704.18116,-78.245321 c 0,0 -0.0501,-185.076989 0.0334,-214.216769 0.0835,-29.13978 -0.26739,-47.2537 -0.26739,-47.2537 0,0 0.16719,-1.96889 0.2256,-12.2072 0.0812,-14.20698 0.025,-166.5693 0.025,-166.5693 l 1.58756,10e-6 c 0,0 0.0334,144.91134 0.13364,169.32576 0.1003,24.41441 -0.0801,127.82171 -0.069,139.27696 0.008,6.85813 0.14702,20.44592 0.13571,26.6931 -0.01,5.28364 -0.0995,25.74006 -0.086,51.79029 0.01,17.45061 -0.081,53.160849 -0.081,53.160849"
         style="opacity:0.23673467;fill:#ffffff;fill-opacity:1;stroke:none" />
    </g>
    <g
       id="g4714"
       transform="matrix(1.0322082,0,0,1.1352755,-9.8843361,-62.650496)"
       clip-path="url(#clipPath4739)"
       inkscape:export-filename="/home/olle/projekt/android/HappyBirds_trunk/res/drawable-xhdpi/background2_below.png"
       inkscape:export-xdpi="180"
       inkscape:export-ydpi="180">
      <rect
         y="-15.402265"
         x="1036.4165"
         height="531.99078"
         width="700"
         id="rect4535"
         style="fill:#dc4fa8;fill-opacity:1;stroke:none" />
      <rect
         style="fill:#e27786;fill-opacity:1;stroke:none"
         id="rect4537"
         width="700"
         height="241.79918"
         x="1036.4165"
         y="-16.169964" />
      <rect
         y="-16.169964"
         x="1036.4165"
         height="62.156765"
         width="700"
         id="rect4539"
         style="fill:#e78d99;fill-opacity:1;stroke:none" />
      <path
         style="fill:#5c7956;fill-opacity:1;stroke:#000000;stroke-width:0.92377388;stroke-linecap:round;stroke-linejoin:round;stroke-miterlimit:4;stroke-opacity:1;stroke-dasharray:none"
         d="m 1227.8082,568.32607 c 0,0 -0.3634,-255.20735 0.2422,-295.38893 0.6055,-40.18159 -1.9378,-65.15933 -1.9378,-65.15933 0,0 1.2111,-2.71496 1.635,-16.83283 0.5882,-19.59036 0.1817,-229.686624 0.1817,-229.686624 l 11.5054,2e-6 c 0,0 0.2422,199.821942 0.9689,233.487592 0.7267,33.66565 -0.5802,176.25661 -0.5001,192.05254 0.048,9.45685 1.0651,28.1934 0.984,36.80779 -0.069,7.28575 -0.7208,35.49363 -0.6228,71.41494 0.066,24.0631 -0.5878,73.30485 -0.5878,73.30485"
         id="path4541"
         inkscape:connector-curvature="0"
         sodipodi:nodetypes="cscsccssssc" />
      <path
         sodipodi:nodetypes="cscsccssssc"
         inkscape:connector-curvature="0"
         id="path4543"
         d="m 1228.6845,568.32608 c 0,0 -0.2321,-255.20735 0.1548,-295.38894 0.3868,-40.18158 -1.2379,-65.15933 -1.2379,-65.15933 0,0 0.7737,-2.71496 1.0444,-16.83282 0.3758,-19.59037 0.116,-229.686634 0.116,-229.686634 l 7.3496,10e-7 c 0,0 0.1547,199.821943 0.6189,233.487593 0.4642,33.66566 -0.3706,176.25661 -0.3195,192.05254 0.031,9.45685 0.6804,28.1934 0.6285,36.80779 -0.044,7.28575 -0.4603,35.49364 -0.3977,71.41495 0.042,24.0631 -0.3755,73.30485 -0.3755,73.30485"
         style="opacity:0.23673467;fill:#ffffff;fill-opacity:1;stroke:none" />
      <path
         style="opacity:0.23673467;fill:#ffffff;fill-opacity:1;stroke:none"
         d="m 1229.4835,568.32608 c 0,0 -0.036,-255.20735 0.024,-295.38894 0.06,-40.18158 -0.1932,-65.15933 -0.1932,-65.15933 0,0 0.1208,-2.71496 0.163,-16.83282 0.059,-19.59037 0.018,-229.686634 0.018,-229.686634 l 1.1467,10e-7 c 0,0 0.024,199.821943 0.096,233.487593 0.072,33.66566 -0.058,176.25661 -0.05,192.05254 0.01,9.45685 0.1062,28.1934 0.098,36.80779 -0.01,7.28575 -0.072,35.49364 -0.062,71.41495 0.01,24.0631 -0.059,73.30485 -0.059,73.30485"
         id="path4545"
         inkscape:connector-curvature="0"
         sodipodi:nodetypes="cscsccssssc" />
      <g
         transform="matrix(1,0,0,1.5199737,201.62441,-136.39701)"
         id="g4687">
        <path
           sodipodi:nodetypes="cscsccssssc"
           inkscape:connector-curvature="0"
           id="path4547"
           d="m 1284.7443,458.64163 c 0,0 -0.5645,-167.90248 0.3764,-194.33819 0.9409,-26.43571 -3.0108,-42.86872 -3.0108,-42.86872 0,0 1.8817,-1.78619 2.5403,-11.07442 0.914,-12.88862 0.2823,-151.11224 0.2823,-151.11224 l 17.8769,10e-7 c 0,0 0.3764,131.464079 1.5054,153.612919 1.1291,22.14884 -0.9014,115.9603 -0.777,126.35254 0.074,6.22172 1.655,18.54861 1.5288,24.21607 -0.1066,4.79334 -1.1198,23.35148 -0.9675,46.98433 0.102,15.83126 -0.9133,48.22771 -0.9133,48.22771"
           style="fill:#476940;fill-opacity:1;stroke:#000000;stroke-width:0.74928606;stroke-linecap:round;stroke-linejoin:round;stroke-miterlimit:4;stroke-opacity:1;stroke-dasharray:none" />
        <path
           style="opacity:0.23673467;fill:#ffffff;fill-opacity:1;stroke:none"
           d="m 1286.106,458.64163 c 0,0 -0.3606,-167.90248 0.2404,-194.33819 0.601,-26.43571 -1.9233,-42.86872 -1.9233,-42.86872 0,0 1.2021,-1.78619 1.6228,-11.07442 0.5838,-12.88862 0.1802,-151.11224 0.1802,-151.11224 l 11.4196,10e-7 c 0,0 0.2404,131.464079 0.9616,153.612919 0.7212,22.14884 -0.5758,115.9603 -0.4964,126.35254 0.048,6.22172 1.0572,18.54861 0.9766,24.21607 -0.068,4.79334 -0.7153,23.35148 -0.618,46.98433 0.065,15.83126 -0.5834,48.22771 -0.5834,48.22771"
           id="path4549"
           inkscape:connector-curvature="0"
           sodipodi:nodetypes="cscsccssssc" />
        <path
           sodipodi:nodetypes="cscsccssssc"
           inkscape:connector-curvature="0"
           id="path4551"
           d="m 1287.3474,458.64163 c 0,0 -0.056,-167.90248 0.037,-194.33819 0.094,-26.43571 -0.3001,-42.86872 -0.3001,-42.86872 0,0 0.1877,-1.78619 0.2532,-11.07442 0.091,-12.88862 0.028,-151.11224 0.028,-151.11224 l 1.7818,10e-7 c 0,0 0.037,131.464079 0.15,153.612919 0.1125,22.14884 -0.09,115.9603 -0.077,126.35254 0.01,6.22172 0.165,18.54861 0.1523,24.21607 -0.011,4.79334 -0.1117,23.35148 -0.096,46.98433 0.011,15.83126 -0.091,48.22771 -0.091,48.22771"
           style="opacity:0.23673467;fill:#ffffff;fill-opacity:1;stroke:none" />
      </g>
      <path
         style="fill:#698064;fill-opacity:1;stroke:#000000;stroke-width:0.92377377;stroke-linecap:round;stroke-linejoin:round;stroke-miterlimit:4;stroke-opacity:1;stroke-dasharray:none"
         d="m 1377.9114,563.53358 c 0,0 1.0882,-254.98012 0.902,-295.38894 -0.1638,-35.57536 -1.1687,-62.08851 -1.1687,-62.08851 0,0 -5.1655,-74.87901 -3.5871,-88.99687 2.1903,-19.59036 4.3048,-160.593396 4.3048,-160.593396 l 42.8436,2e-6 c 0,0 0.9019,199.821934 3.6078,233.487594 2.7059,33.66565 -2.1604,176.2566 -1.8622,192.05254 0.1784,9.45685 3.9662,28.19339 3.664,36.80778 -0.2556,7.28576 -2.6839,35.49364 -2.3189,71.41495 0.2444,24.0631 -2.1888,73.30485 -2.1888,73.30485"
         id="path4553"
         inkscape:connector-curvature="0"
         sodipodi:nodetypes="cscsccssssc" />
      <path
         sodipodi:nodetypes="cscsccssssc"
         inkscape:connector-curvature="0"
         id="path4555"
         d="m 1381.1748,563.53359 c 0,0 -0.8643,-255.20736 0.5761,-295.38894 1.4404,-40.18159 -0.1749,-50.57298 -0.1749,-50.57298 0,0 -3.1663,-62.97962 -2.1578,-77.09749 1.3992,-19.59036 2.0447,-184.008316 2.0447,-184.008316 l 27.3679,10e-7 c 0,0 0.5761,199.821945 2.3046,233.487595 1.7286,33.66566 -1.38,176.25661 -1.1896,192.05254 0.1141,9.45685 2.5337,28.1934 2.3405,36.80779 -0.1632,7.28575 -1.7143,35.49364 -1.4812,71.41495 0.1562,24.0631 -1.3982,73.30485 -1.3982,73.30485"
         style="opacity:0.23673467;fill:#ffffff;fill-opacity:1;stroke:none" />
      <path
         style="opacity:0.23673467;fill:#ffffff;fill-opacity:1;stroke:none"
         d="m 1384.1499,563.53359 c 0,0 -0.1349,-255.20736 0.09,-295.38894 0.2246,-40.18159 -0.7192,-65.15933 -0.7192,-65.15933 0,0 -0.9613,-16.53361 -0.8042,-30.65147 0.2185,-19.59036 0.068,-229.686635 0.068,-229.686635 l 5.6812,13.81865 c 0,0 0.09,199.821945 0.3594,233.487595 0.2697,33.66566 -0.2155,176.25661 -0.1855,192.05254 0.02,9.45685 0.3954,28.1934 0.365,36.80779 -0.025,7.28575 -0.2677,35.49364 -0.2312,71.41495 0.025,24.0631 -0.218,73.30485 -0.218,73.30485"
         id="path4557"
         inkscape:connector-curvature="0"
         sodipodi:nodetypes="cscsccssssc" />
      <path
         style="fill:#5b7a53;fill-opacity:1;stroke:#000000;stroke-width:0.92377388;stroke-linecap:round;stroke-linejoin:round;stroke-miterlimit:4;stroke-opacity:1;stroke-dasharray:none"
         d="m 1122.1548,561.81189 c 0,0 -0.5645,-255.20735 0.3764,-295.38894 0.9409,-40.18158 -3.0109,-65.15932 -3.0109,-65.15932 0,0 1.8818,-2.71496 2.5404,-16.83283 0.914,-19.59036 0.2823,-229.686616 0.2823,-229.686616 l 17.8769,1e-6 c 0,0 0.3764,199.821925 1.5054,233.487585 1.1291,33.66565 -0.9014,176.2566 -0.777,192.05254 0.074,9.45685 1.655,28.1934 1.5288,36.80779 -0.1066,7.28575 -1.1198,35.49363 -0.9675,71.41494 0.1019,24.0631 -0.9133,73.30485 -0.9133,73.30485"
         id="path4579"
         inkscape:connector-curvature="0"
         sodipodi:nodetypes="cscsccssssc" />
      <path
         sodipodi:nodetypes="cscsccssssc"
         inkscape:connector-curvature="0"
         id="path4581"
         d="m 1123.5165,561.8119 c 0,0 -0.3606,-255.20736 0.2404,-295.38894 0.601,-40.18159 -1.9233,-65.15933 -1.9233,-65.15933 0,0 1.2021,-2.71496 1.6228,-16.83283 0.5838,-19.59036 0.1802,-229.686617 0.1802,-229.686617 l 11.4196,2e-6 c 0,0 0.2404,199.821935 0.9616,233.487585 0.7212,33.66566 -0.5758,176.25661 -0.4964,192.05254 0.048,9.45685 1.0572,28.1934 0.9766,36.80779 -0.068,7.28575 -0.7153,35.49364 -0.618,71.41495 0.065,24.0631 -0.5834,73.30485 -0.5834,73.30485"
         style="opacity:0.23673467;fill:#ffffff;fill-opacity:1;stroke:none" />
      <path
         style="opacity:0.23673467;fill:#ffffff;fill-opacity:1;stroke:none"
         d="m 1124.7579,561.8119 c 0,0 -0.056,-255.20736 0.037,-295.38894 0.094,-40.18159 -0.3001,-65.15933 -0.3001,-65.15933 0,0 0.1876,-2.71496 0.2532,-16.83283 0.091,-19.59036 0.028,-229.686617 0.028,-229.686617 l 1.7818,2e-6 c 0,0 0.037,199.821935 0.15,233.487585 0.1125,33.66566 -0.09,176.25661 -0.077,192.05254 0.01,9.45685 0.165,28.1934 0.1523,36.80779 -0.011,7.28575 -0.1117,35.49364 -0.097,71.41495 0.011,24.0631 -0.091,73.30485 -0.091,73.30485"
         id="path4583"
         inkscape:connector-curvature="0"
         sodipodi:nodetypes="cscsccssssc" />
      <path
         sodipodi:nodetypes="cscsccssssc"
         inkscape:connector-curvature="0"
         id="path4601"
         d="m 1700.1572,569.41176 c 0,0 -0.4563,-255.20735 0.3043,-295.38894 0.7606,-40.18158 -2.434,-65.15932 -2.434,-65.15932 0,0 1.5212,-2.71497 2.0537,-16.83283 0.7388,-19.59036 0.2281,-229.686618 0.2281,-229.686618 l 14.4517,2e-6 c 0,0 0.3042,199.821926 1.217,233.487586 0.9127,33.66565 -0.7288,176.2566 -0.6282,192.05253 0.06,9.45686 1.3379,28.1934 1.2359,36.80779 -0.086,7.28575 -0.9053,35.49364 -0.7822,71.41495 0.082,24.0631 -0.7383,73.30485 -0.7383,73.30485"
         style="fill:#425f3c;fill-opacity:1;stroke:#000000;stroke-width:0.92377388;stroke-linecap:round;stroke-linejoin:round;stroke-miterlimit:4;stroke-opacity:1;stroke-dasharray:none" />
      <path
         style="opacity:0.23673467;fill:#ffffff;fill-opacity:1;stroke:none"
         d="m 1701.258,569.41177 c 0,0 -0.2915,-255.20736 0.1943,-295.38894 0.4859,-40.18159 -1.5547,-65.15933 -1.5547,-65.15933 0,0 0.9717,-2.71496 1.3118,-16.83283 0.472,-19.59036 0.1457,-229.686618 0.1457,-229.686618 l 9.2315,1e-6 c 0,0 0.1944,199.821927 0.7774,233.487587 0.5831,33.66565 -0.4655,176.25661 -0.4013,192.05254 0.039,9.45685 0.8547,28.1934 0.7895,36.80779 -0.055,7.28575 -0.5783,35.49364 -0.4996,71.41495 0.053,24.0631 -0.4716,73.30485 -0.4716,73.30485"
         id="path4603"
         inkscape:connector-curvature="0"
         sodipodi:nodetypes="cscsccssssc" />
      <path
         sodipodi:nodetypes="cscsccssssc"
         inkscape:connector-curvature="0"
         id="path4605"
         d="m 1702.2615,569.41177 c 0,0 -0.045,-255.20736 0.03,-295.38894 0.076,-40.18159 -0.2426,-65.15933 -0.2426,-65.15933 0,0 0.1517,-2.71496 0.2047,-16.83283 0.074,-19.59036 0.023,-229.686618 0.023,-229.686618 l 1.4404,1e-6 c 0,0 0.03,199.821927 0.1213,233.487587 0.091,33.66565 -0.073,176.25661 -0.063,192.05254 0.01,9.45685 0.1333,28.1934 0.1231,36.80779 -0.01,7.28575 -0.09,35.49364 -0.078,71.41495 0.01,24.0631 -0.073,73.30485 -0.073,73.30485"
         style="opacity:0.23673467;fill:#ffffff;fill-opacity:1;stroke:none" />
    </g>
    <g
       clip-path="url(#clipPath4890)"
       transform="matrix(1,0,0,1.5300068,1038.4368,-856.52899)"
       id="g4639"
       inkscape:export-filename="/home/olle/projekt/android/HappyBirds_trunk/res/drawable-xhdpi/background2_tree2.png"
       inkscape:export-xdpi="180"
       inkscape:export-ydpi="180">
      <path
         style="fill:#548f47;fill-opacity:1;stroke:#000000;stroke-width:1.61690056;stroke-linecap:round;stroke-linejoin:round;stroke-miterlimit:4;stroke-opacity:1;stroke-dasharray:none"
         d="m 560.36878,458.64163 c 0,0 -0.81488,-161.77312 1.75215,-188.27727 2.5604,-26.43571 7.43651,-48.92964 7.19601,-48.92964 0,0 -3.86616,-16.4334 -6.10321,-25.72163 -0.53652,-2.22762 1.6047,-33.93966 2.3075,-39.09452 0.8261,-6.05921 -0.4621,-23.3838 -0.63317,-30.90929 -0.74523,-32.782988 3.93293,-65.956144 3.93293,-65.956144 l -69.81107,-0.505075 c 0,0 -0.1412,14.599896 -0.54918,34.488701 -0.0949,4.62504 -2.72956,8.525938 -2.85487,13.605908 -0.17742,7.19267 2.13845,15.73414 1.89236,23.27174 -1.08153,33.12757 -2.86948,66.37652 -5.74441,71.53228 -3.17868,5.70049 5.04611,8.85225 5.2148,24.51078 0.41227,38.2694 -0.1328,105.1813 -0.43267,112.55605 -0.25299,6.22172 -0.62116,26.40575 -0.19277,32.07321 0.36233,4.79334 -1.19636,15.49434 -1.71363,39.12719 -0.34652,15.83126 3.10206,48.22771 3.10206,48.22771"
         id="path4641"
         inkscape:connector-curvature="0"
         sodipodi:nodetypes="cscsssccssssssssc" />
      <path
         style="fill:#33b300;fill-opacity:1;stroke:#000000;stroke-width:1.61690044;stroke-linecap:round;stroke-linejoin:round;stroke-miterlimit:4;stroke-opacity:1;stroke-dasharray:none"
         d="m 569.85949,221.00111 c 0,0 3.31238,-8.18869 8.48797,-10.85001 5.17559,-2.66132 14.69867,-1.84245 14.69867,-1.84245 0,0 -5.38261,9.41699 -10.14415,11.46415 -4.76155,2.04717 -13.04249,1.22831 -13.04249,1.22831 z"
         id="path4643"
         inkscape:connector-curvature="0" />
      <path
         inkscape:connector-curvature="0"
         id="path4645"
         d="m 575.77656,216.82272 c 0,0 2.04598,-4.89931 5.24283,-6.49159 3.19684,-1.59227 9.07903,-1.10233 9.07903,-1.10233 0,0 -3.32471,5.6342 -6.26581,6.85902 -2.9411,1.22483 -8.05605,0.7349 -8.05605,0.7349 z"
         style="opacity:0.27346939;fill:#ffffff;fill-opacity:1;stroke:none" />
      <path
         inkscape:connector-curvature="0"
         id="path4647"
         d="m 491.10003,206.25918 c 0,0 -4.04062,-10.10153 -10.35407,-13.38453 -6.31345,-3.28299 -17.93021,-2.27284 -17.93021,-2.27284 0,0 6.566,11.61676 12.37437,14.14214 5.80838,2.52538 15.90991,1.51523 15.90991,1.51523 z"
         style="fill:#33b300;fill-opacity:1;stroke:#000000;stroke-width:1.61690056;stroke-linecap:round;stroke-linejoin:round;stroke-miterlimit:4;stroke-opacity:1;stroke-dasharray:none" />
      <path
         style="opacity:0.27346939;fill:#ffffff;fill-opacity:1;stroke:none"
         d="m 483.88208,201.10474 c 0,0 -2.4958,-6.04377 -6.39548,-8.008 -3.89968,-1.96422 -11.07509,-1.35984 -11.07509,-1.35984 0,0 4.05567,6.95033 7.64337,8.46127 3.58771,1.51094 9.8272,0.90657 9.8272,0.90657 z"
         id="path4649"
         inkscape:connector-curvature="0" />
      <path
         style="fill:#33b300;fill-opacity:1;stroke:#000000;stroke-width:1.61690056;stroke-linecap:round;stroke-linejoin:round;stroke-miterlimit:4;stroke-opacity:1;stroke-dasharray:none"
         d="m 495.20421,105.32221 c 0,0 -0.54645,-6.765023 -3.76947,-9.939203 -3.22303,-3.174179 -10.48976,-4.842961 -10.48976,-4.842961 0,0 1.79736,8.154221 4.85635,10.781614 3.05901,2.62739 9.40288,4.00055 9.40288,4.00055 z"
         id="path4651"
         inkscape:connector-curvature="0" />
      <path
         inkscape:transform-center-y="-1.542398"
         inkscape:transform-center-x="0.722175"
         inkscape:connector-curvature="0"
         id="path4653"
         d="m 491.78497,100.86429 c 0,0 -0.37461,-4.062793 -2.37747,-5.98579 -2.00285,-1.922984 -6.48763,-2.96533 -6.48763,-2.96533 0,0 1.15284,4.903507 3.05159,6.497437 1.89876,1.593933 5.81351,2.453683 5.81351,2.453683 z"
         style="opacity:0.27346939;fill:#ffffff;fill-opacity:1;stroke:none" />
      <path
         sodipodi:nodetypes="cscsssccssssssssc"
         inkscape:connector-curvature="0"
         id="path4655"
         d="m 544.10618,458.64163 c 0,0 -0.53984,-161.77312 1.16076,-188.27727 1.6962,-26.43571 4.92651,-48.92964 4.76718,-48.92964 0,0 -2.56124,-16.4334 -4.04323,-25.72163 -0.35543,-2.22762 1.06307,-33.93966 1.52867,-39.09452 0.54727,-6.05921 -0.30613,-23.3838 -0.41946,-30.90929 -0.4937,-32.782988 2.60546,-65.956144 2.60546,-65.956144 l -46.24819,-0.505075 c 0,0 -0.0936,14.599896 -0.36383,34.488701 -0.0629,4.62504 -1.80826,8.525938 -1.89128,13.605908 -0.11753,7.19267 1.41667,15.73414 1.25365,23.27174 -0.71649,33.12757 -1.90097,66.37652 -3.80554,71.53228 -2.1058,5.70049 3.34293,8.85225 3.45468,24.51078 0.27312,38.2694 -0.088,105.1813 -0.28663,112.55605 -0.1676,6.22172 -0.41151,26.40575 -0.12771,32.07321 0.24004,4.79334 -0.79256,15.49434 -1.13523,39.12719 -0.22957,15.83126 2.05504,48.22771 2.05504,48.22771"
         style="opacity:0.23000004;fill:#ffffff;fill-opacity:1;stroke:none" />
      <path
         style="opacity:0.23000004;fill:#ffffff;fill-opacity:1;stroke:none"
         d="m 512.74335,458.64163 c 0,0 -0.079,-161.77312 0.16978,-188.27727 0.2481,-26.43571 0.72057,-48.92964 0.69727,-48.92964 0,0 -0.37462,-16.4334 -0.59138,-25.72163 -0.052,-2.22762 0.15548,-33.93966 0.22359,-39.09452 0.08,-6.05921 -0.0448,-23.3838 -0.0614,-30.90929 -0.0722,-32.782988 0.38108,-65.956144 0.38108,-65.956144 l -6.76448,-0.505075 c 0,0 -0.0137,14.599896 -0.0532,34.488701 -0.009,4.62504 -0.26449,8.525938 -0.27663,13.605908 -0.0172,7.19267 0.2072,15.73414 0.18336,23.27174 -0.10479,33.12757 -0.27804,66.37652 -0.55662,71.53228 -0.308,5.70049 0.48896,8.85225 0.50531,24.51078 0.04,38.2694 -0.0128,105.1813 -0.0419,112.55605 -0.0245,6.22172 -0.0602,26.40575 -0.0187,32.07321 0.0351,4.79334 -0.11593,15.49434 -0.16605,39.12719 -0.0336,15.83126 0.30058,48.22771 0.30058,48.22771"
         id="path4657"
         inkscape:connector-curvature="0"
         sodipodi:nodetypes="cscsssccssssssssc" />
    </g>
    <g
       id="g4875"
       clip-path="url(#clipPath4886)"
       inkscape:export-filename="/home/olle/projekt/android/HappyBirds_trunk/res/drawable-mdpi/background2_tree1.png"
       inkscape:export-xdpi="90"
       inkscape:export-ydpi="90">
      <path
         sodipodi:nodetypes="cscsccssssc"
         inkscape:connector-curvature="0"
         id="path4667"
         d="m 1175.1732,-157.89527 c 0,0 -1.2704,-256.89193 0.8469,-297.33875 2.1174,-40.44682 -6.7756,-65.58943 -6.7756,-65.58943 0,0 4.2348,-2.73289 5.717,-16.94394 2.0567,-19.71968 0.6352,-231.20276 0.6352,-231.20276 l 40.2303,10e-6 c 0,0 0.8469,201.14093 3.3878,235.02881 2.5408,33.88787 -2.0287,177.42004 -1.7487,193.32024 0.1676,9.51928 3.7244,28.3795 3.4405,37.05075 -0.24,7.33385 -2.5201,35.72793 -2.1774,71.88635 0.2296,24.22193 -2.0553,73.78872 -2.0553,73.78872"
         style="fill:#548f47;fill-opacity:1;stroke:#000000;stroke-width:2;stroke-linecap:round;stroke-linejoin:round;stroke-miterlimit:4;stroke-opacity:1;stroke-dasharray:none"
         clip-path="none" />
      <path
         style="opacity:0.23673467;fill:#ffffff;fill-opacity:1;stroke:none"
         d="m 1178.2375,-157.89527 c 0,0 -0.8115,-256.89193 0.541,-297.33875 1.3526,-40.44682 -4.3282,-65.58943 -4.3282,-65.58943 0,0 2.7051,-2.73289 3.6519,-16.94394 1.3138,-19.71968 0.4058,-231.20276 0.4058,-231.20276 l 25.6985,10e-6 c 0,0 0.541,201.14093 2.1641,235.02881 1.6231,33.88787 -1.2958,177.42004 -1.117,193.32024 0.1071,9.51928 2.379,28.3795 2.1977,37.05075 -0.1533,7.33385 -1.6098,35.72793 -1.3909,71.88635 0.1467,24.22193 -1.3129,73.78872 -1.3129,73.78872"
         id="path4669"
         inkscape:connector-curvature="0"
         sodipodi:nodetypes="cscsccssssc"
         clip-path="none" />
      <path
         sodipodi:nodetypes="cscsccssssc"
         inkscape:connector-curvature="0"
         id="path4671"
         d="m 1181.0312,-157.89527 c 0,0 -0.1267,-256.89193 0.084,-297.33875 0.211,-40.44682 -0.6753,-65.58943 -0.6753,-65.58943 0,0 0.422,-2.73289 0.5698,-16.94394 0.205,-19.71968 0.063,-231.20276 0.063,-231.20276 l 4.0097,10e-6 c 0,0 0.084,201.14093 0.3377,235.02881 0.2532,33.88787 -0.2022,177.42004 -0.1743,193.32024 0.017,9.51928 0.3712,28.3795 0.3429,37.05075 -0.024,7.33385 -0.2512,35.72793 -0.217,71.88635 0.023,24.22193 -0.2049,73.78872 -0.2049,73.78872"
         style="opacity:0.23673467;fill:#ffffff;fill-opacity:1;stroke:none"
         clip-path="none" />
      <path
         inkscape:connector-curvature="0"
         id="path4673"
         d="m 1170.2391,-519.99916 c 0,0 -4.0036,-15.45541 -10.2593,-20.47842 -6.2557,-5.023 -17.7663,-3.47746 -17.7663,-3.47746 0,0 6.5059,17.77372 12.2612,21.63757 5.7553,3.86384 15.7644,2.31831 15.7644,2.31831 z"
         style="fill:#33b300;fill-opacity:1;stroke:#000000;stroke-width:2;stroke-linecap:round;stroke-linejoin:round;stroke-miterlimit:4;stroke-opacity:1;stroke-dasharray:none"
         clip-path="none" />
      <path
         style="opacity:0.27346939;fill:#ffffff;fill-opacity:1;stroke:none"
         d="m 1163.0871,-527.88549 c 0,0 -2.4729,-9.24701 -6.3369,-12.25229 -3.864,-3.00527 -10.9738,-2.08057 -10.9738,-2.08057 0,0 4.0185,10.63405 7.5735,12.9458 3.5548,2.31175 9.7372,1.38706 9.7372,1.38706 z"
         id="path4675"
         inkscape:connector-curvature="0"
         clip-path="none" />
      <path
         style="fill:#33b300;fill-opacity:1;stroke:#000000;stroke-width:2;stroke-linecap:round;stroke-linejoin:round;stroke-miterlimit:4;stroke-opacity:1;stroke-dasharray:none"
         d="m 1221.0677,-305.79821 c 0,0 3.7996,-15.45541 9.7364,-20.47842 5.9369,-5.023 16.8607,-3.47746 16.8607,-3.47746 0,0 -6.1744,17.77372 -11.6362,21.63757 -5.4619,3.86385 -14.9609,2.31831 -14.9609,2.31831 z"
         id="path4677"
         inkscape:connector-curvature="0"
         clip-path="none" />
      <path
         inkscape:connector-curvature="0"
         id="path4679"
         d="m 1227.8551,-313.68454 c 0,0 2.3469,-9.24701 6.014,-12.25229 3.6671,-3.00527 10.4145,-2.08057 10.4145,-2.08057 0,0 -3.8138,10.63406 -7.1875,12.9458 -3.3736,2.31175 -9.241,1.38706 -9.241,1.38706 z"
         style="opacity:0.27346939;fill:#ffffff;fill-opacity:1;stroke:none"
         clip-path="none" />
    </g>
  </g>
</svg>
