<?xml version="1.0" encoding="UTF-8" standalone="no"?>
<!-- Created with Inkscape (http://www.inkscape.org/) -->

<svg
   xmlns:dc="http://purl.org/dc/elements/1.1/"
   xmlns:cc="http://creativecommons.org/ns#"
   xmlns:rdf="http://www.w3.org/1999/02/22-rdf-syntax-ns#"
   xmlns:svg="http://www.w3.org/2000/svg"
   xmlns="http://www.w3.org/2000/svg"
   xmlns:sodipodi="http://sodipodi.sourceforge.net/DTD/sodipodi-0.dtd"
   xmlns:inkscape="http://www.inkscape.org/namespaces/inkscape"
   width="744.09448819"
   height="1052.3622047"
   id="svg12622"
   version="1.1"
   inkscape:version="0.48.4 r9939"
   sodipodi:docname="item_fire1.svg">
  <defs
     id="defs12624" />
  <sodipodi:namedview
     id="base"
     pagecolor="#ffffff"
     bordercolor="#666666"
     borderopacity="1.0"
     inkscape:pageopacity="0.0"
     inkscape:pageshadow="2"
     inkscape:zoom="2.8"
     inkscape:cx="146.02252"
     inkscape:cy="23.196685"
     inkscape:document-units="px"
     inkscape:current-layer="layer1"
     showgrid="false"
     inkscape:window-width="1920"
     inkscape:window-height="989"
     inkscape:window-x="0"
     inkscape:window-y="28"
     inkscape:window-maximized="1" />
  <metadata
     id="metadata12627">
    <rdf:RDF>
      <cc:Work
         rdf:about="">
        <dc:format>image/svg+xml</dc:format>
        <dc:type
           rdf:resource="http://purl.org/dc/dcmitype/StillImage" />
        <dc:title></dc:title>
      </cc:Work>
    </rdf:RDF>
  </metadata>
  <g
     inkscape:label="Layer 1"
     inkscape:groupmode="layer"
     id="layer1">
    <rect
       style="opacity:0;fill:#c55f5f;fill-opacity:1;fill-rule:nonzero;stroke:none;display:inline"
       id="rect8357"
       width="42"
       height="42"
       x="0"
       y="1010.3622"
       rx="3.3939359"
       ry="3.3939359"
       inkscape:export-filename="/home/olle/projekt/android/HappyBirds_trunk/res/drawable-mdpi/item_bomb1.png"
       inkscape:export-xdpi="90"
       inkscape:export-ydpi="90" />
    <rect
       inkscape:export-ydpi="90"
       inkscape:export-xdpi="90"
       inkscape:export-filename="/home/olle/projekt/android/HappyBirds_trunk/res/drawable-mdpi/item_bomb1.png"
       ry="3.3939359"
       rx="3.3939359"
       y="1010.3622"
       x="42"
       height="42"
       width="42"
       id="rect5458"
       style="opacity:0;fill:#c55f5f;fill-opacity:1;fill-rule:nonzero;stroke:none;display:inline" />
    <rect
       style="opacity:0;fill:#c55f5f;fill-opacity:1;fill-rule:nonzero;stroke:none;display:inline"
       id="rect5460"
       width="42"
       height="42"
       x="83.999985"
       y="1010.3622"
       rx="3.3939359"
       ry="3.3939359"
       inkscape:export-filename="/home/olle/projekt/android/HappyBirds_trunk/res/drawable-mdpi/item_bomb1.png"
       inkscape:export-xdpi="90"
       inkscape:export-ydpi="90" />
    <rect
       inkscape:export-ydpi="90"
       inkscape:export-xdpi="90"
       inkscape:export-filename="/home/olle/projekt/android/HappyBirds_trunk/res/drawable-mdpi/item_bomb1.png"
       ry="3.3939359"
       rx="3.3939359"
       y="1010.3622"
       x="125.99998"
       height="42"
       width="42"
       id="rect5462"
       style="opacity:0;fill:#c55f5f;fill-opacity:1;fill-rule:nonzero;stroke:none;display:inline" />
    <rect
       style="opacity:0;fill:#c55f5f;fill-opacity:1;fill-rule:nonzero;stroke:none;display:inline"
       id="rect5464"
       width="42"
       height="42"
       x="167.99998"
       y="1010.3622"
       rx="3.3939359"
       ry="3.3939359"
       inkscape:export-filename="/home/olle/projekt/android/HappyBirds_trunk/res/drawable-mdpi/item_bomb1.png"
       inkscape:export-xdpi="90"
       inkscape:export-ydpi="90" />
    <rect
       inkscape:export-ydpi="90"
       inkscape:export-xdpi="90"
       inkscape:export-filename="/home/olle/projekt/android/HappyBirds_trunk/res/drawable-mdpi/item_bomb1.png"
       ry="3.3939359"
       rx="3.3939359"
       y="1010.3622"
       x="209.99998"
       height="42"
       width="42"
       id="rect5466"
       style="opacity:0;fill:#c55f5f;fill-opacity:1;fill-rule:nonzero;stroke:none;display:inline" />
    <rect
       style="opacity:0;fill:#c55f5f;fill-opacity:1;fill-rule:nonzero;stroke:none;display:inline"
       id="rect5468"
       width="42"
       height="42"
       x="251.99998"
       y="1010.3622"
       rx="3.3939359"
       ry="3.3939359"
       inkscape:export-filename="/home/olle/projekt/android/HappyBirds_trunk/res/drawable-mdpi/item_bomb1.png"
       inkscape:export-xdpi="90"
       inkscape:export-ydpi="90" />
    <rect
       inkscape:export-ydpi="90"
       inkscape:export-xdpi="90"
       inkscape:export-filename="/home/olle/projekt/android/HappyBirds_trunk/res/drawable-mdpi/item_bomb1.png"
       ry="3.3939359"
       rx="3.3939359"
       y="1010.3622"
       x="293.99997"
       height="42"
       width="42"
       id="rect5470"
       style="opacity:0;fill:#c55f5f;fill-opacity:1;fill-rule:nonzero;stroke:none;display:inline" />
    <path
       style="fill:#8affff;fill-opacity:1;stroke:#000000;stroke-width:1.00000012;stroke-linecap:round;stroke-linejoin:round;stroke-miterlimit:4;stroke-opacity:1;stroke-dasharray:none"
       d="m 34.574391,1019.6608 c 0,0 -1.867247,2.9045 -2.63769,3.7901 -0.770442,0.8857 -3.794544,1.5232 -3.546479,2.4439 0.245698,0.912 2.723588,2.4469 3.538864,2.264 0.815276,-0.1828 2.944008,-5.5905 2.765229,-5.892 -0.178829,-0.3015 -0.562398,-0.7455 -0.1875,-1.25 0.822723,-1.1071 0.06758,-1.356 0.06758,-1.356 z m -27.2952089,0.09 c -0.206485,3.2577 0.7890585,4.9615 1.7276334,6.0165 0.760954,3.0194 4.8629705,-0.1488 1.2499995,-1.875 -1.8952864,-1.038 -2.9776329,-4.1415 -2.9776329,-4.1415 z m 5.1338829,7.079 c -0.63271,8.8964 1.144836,10.1064 1.78125,13.2187 0.168079,0.4252 0.415076,2.6687 0.346288,2.9878 -3.204268,-2.3041 -5.8333571,-7.9874 -8.295209,-13.1471 1.574665,6.9878 1.3586156,11.679 3.6989215,13.5031 2.1288465,1.6593 -2.3222869,3.12 -0.875,4.5 1.4472865,1.38 4.4644655,1.2163 5.8999045,0.4636 0.389653,-0.2042 1.075635,-1.2614 1.595019,-1.6638 0.487936,0 1.558745,1.2307 2.161326,1.1687 0.914817,0.4854 1.874435,0.8384 2.53125,1.0313 1.955159,0.5742 7.528798,1.5505 10.10311,-3.9992 3.079386,-2.8982 -4.528834,-0.9139 -2.485248,-3.0997 2.246575,-2.4028 4.58477,-3.3864 4.319638,-11.3074 0,0 -1.857325,5.8903 -6.322176,8.0977 -0.682644,0.1794 -4.308661,3.8709 -5.025727,3.7874 -1.786304,-0.2079 -2.027826,-4.1483 -3.075637,-5.1942 -3.327849,-3.519 -6.35771,-10.3475 -6.35771,-10.3475 z m 7.181155,0.981 c 0,0 0.277206,4.6026 0.820114,6.2116 0.247388,0.7332 1.112004,1.7629 0.922748,2.1613 -0.18926,0.3981 0.847393,1.6179 1.65625,1.5938 0.808856,-0.024 1.7057,-0.4534 2.03125,-1.6875 0.860707,-3.742 -2.864439,-3.9201 -5.430362,-8.2792 z"
       id="path8026"
       inkscape:connector-curvature="0"
       sodipodi:nodetypes="cccccccccccccccsscccsccccsccccscccc" />
    <path
       sodipodi:nodetypes="cccccccccccccccsscccsccccsccccscccc"
       inkscape:connector-curvature="0"
       id="path13333"
       d="m 76.854516,1019.364 c 0,0 -1.904592,2.9625 -2.690443,3.8659 -0.785851,0.9034 -3.870435,1.5536 -3.617409,2.4927 0.250612,0.9303 2.77806,2.4959 3.609641,2.3093 0.831582,-0.1864 3.002888,-5.7023 2.820534,-6.0098 -0.182406,-0.3076 -0.573646,-0.7604 -0.19125,-1.275 0.839177,-1.1293 0.06893,-1.3832 0.06893,-1.3832 z m -27.841113,0.092 c -0.210615,3.3229 0.80484,5.0608 1.762187,6.1369 0.776172,3.0798 4.960229,-0.1518 1.274999,-1.9125 -1.933192,-1.0588 -3.037186,-4.2244 -3.037186,-4.2244 z m 5.236561,7.2206 c -0.645364,9.0744 1.167733,10.3086 1.816875,13.4831 0.17144,0.4337 0.423377,2.7221 0.353214,3.0476 -3.268354,-2.3502 -5.950025,-8.1472 -8.461114,-13.4101 1.606159,7.1276 1.385789,11.9126 3.772901,13.7732 2.171423,1.6925 -2.368733,3.1824 -0.8925,4.59 1.476232,1.4076 4.553754,1.2406 6.017902,0.4729 0.397446,-0.2083 1.097148,-1.2867 1.626919,-1.6971 0.497695,0 1.58992,1.2553 2.204553,1.1921 0.933113,0.4951 1.911924,0.8551 2.581875,1.0519 1.994262,0.5857 7.679374,1.5815 10.305172,-4.0792 3.140974,-2.9562 -4.619411,-0.9322 -2.534953,-3.1617 2.291507,-2.4509 4.676465,-3.4541 4.406031,-11.5335 0,0 -1.894472,6.0081 -6.44862,8.2596 -0.696297,0.183 -4.394834,3.9483 -5.126241,3.8632 -1.82203,-0.2121 -2.068383,-4.2313 -3.13715,-5.2981 -3.394406,-3.5894 -6.484864,-10.5545 -6.484864,-10.5545 z m 7.324778,1.0007 c 0,0 0.28275,4.6946 0.836516,6.3358 0.252336,0.7478 1.134244,1.7981 0.941203,2.2045 -0.193045,0.4061 0.864341,1.6503 1.689375,1.6257 0.825033,-0.024 1.739814,-0.4625 2.071875,-1.7213 0.877921,-3.8168 -2.921728,-3.9985 -5.538969,-8.4447 z"
       style="fill:#8affff;fill-opacity:1;stroke:#000000;stroke-width:1.00000012;stroke-linecap:round;stroke-linejoin:round;stroke-miterlimit:4;stroke-opacity:1;stroke-dasharray:none" />
    <path
       style="fill:#8affff;fill-opacity:1;stroke:#000000;stroke-width:1.00000012;stroke-linecap:round;stroke-linejoin:round;stroke-miterlimit:4;stroke-opacity:1;stroke-dasharray:none"
       d="m 119.14025,1019.0612 c 0,0 -1.94269,3.0218 -2.74426,3.9432 -0.80157,0.9215 -3.94784,1.5847 -3.68976,2.5426 0.25563,0.9489 2.83362,2.5458 3.68184,2.3555 0.8482,-0.1902 3.06294,-5.8164 2.87694,-6.13 -0.18604,-0.3138 -0.58511,-0.7756 -0.19507,-1.3005 0.85596,-1.1519 0.0704,-1.4109 0.0704,-1.4109 z m -28.397942,0.094 c -0.214827,3.3893 0.820937,5.162 1.797431,6.2596 0.791696,3.1414 5.059434,-0.1548 1.300499,-1.9508 -1.971856,-1.0799 -3.09793,-4.3088 -3.09793,-4.3088 z m 5.341293,7.365 c -0.658273,9.2559 1.191086,10.5147 1.853212,13.7527 0.174869,0.4424 0.431845,2.7766 0.360277,3.1086 -3.33372,-2.3972 -6.069024,-8.3102 -8.630335,-13.6783 1.638282,7.2701 1.413505,12.1508 3.848359,14.0486 2.214852,1.7264 -2.416108,3.2461 -0.91035,4.6818 1.505756,1.4358 4.644829,1.2655 6.13826,0.4824 0.405395,-0.2125 1.119096,-1.3124 1.659456,-1.731 0.50765,0 1.62172,1.2804 2.24865,1.2159 0.95177,0.505 1.95016,0.8722 2.63351,1.0729 2.03414,0.5974 7.83296,1.6132 10.51128,-4.1607 3.20378,-3.0154 -4.71181,-0.9509 -2.58566,-3.225 2.33733,-2.4999 4.77,-3.5232 4.49415,-11.7642 0,0 -1.93236,6.1283 -6.57759,8.4248 -0.71021,0.1867 -4.48272,4.0273 -5.22876,3.9405 -1.85847,-0.2163 -2.10975,-4.3159 -3.1999,-5.4041 -3.462292,-3.6611 -6.614559,-10.7655 -6.614559,-10.7655 z m 7.471269,1.0207 c 0,0 0.28842,4.7885 0.85324,6.4625 0.25739,0.7628 1.15694,1.8341 0.96004,2.2486 -0.19691,0.4142 0.88163,1.6833 1.72315,1.6582 0.84154,-0.024 1.77462,-0.4718 2.11332,-1.7557 0.89548,-3.8932 -2.98016,-4.0785 -5.64975,-8.6136 z"
       id="path13335"
       inkscape:connector-curvature="0"
       sodipodi:nodetypes="cccccccccccccccsscccsccccsccccscccc" />
    <path
       sodipodi:nodetypes="cccccccccccccccsscccsccccsccccscccc"
       inkscape:connector-curvature="0"
       id="path13337"
       d="m 161.43169,1018.7524 c 0,0 -1.98154,3.0822 -2.79914,4.022 -0.8176,0.9399 -4.0268,1.6164 -3.76356,2.5935 0.26074,0.9678 2.89029,2.5967 3.75548,2.4026 0.86516,-0.194 3.1242,-5.9327 2.93448,-6.2526 -0.18976,-0.3201 -0.59681,-0.7911 -0.19897,-1.3265 0.87308,-1.175 0.0718,-1.4391 0.0718,-1.4391 z m -28.9659,0.096 c -0.21912,3.4571 0.83735,5.2653 1.83338,6.3848 0.80753,3.2043 5.16062,-0.1579 1.3265,-1.9898 -2.01127,-1.1015 -3.15988,-4.395 -3.15988,-4.395 z m 5.44812,7.5123 c -0.67145,9.4411 1.21491,10.725 1.89026,14.0278 0.17838,0.4512 0.4405,2.8321 0.3675,3.1708 -3.40041,-2.4452 -6.1904,-8.4764 -8.80294,-13.9519 1.67105,7.4155 1.44177,12.3938 3.92532,14.3296 2.25915,1.7609 -2.46442,3.311 -0.92856,4.7754 1.53588,1.4645 4.73773,1.2908 6.26103,0.4921 0.4135,-0.2168 1.14148,-1.3387 1.69265,-1.7657 0.5178,0 1.65415,1.306 2.29362,1.2402 0.97081,0.5151 1.98916,0.8897 2.68618,1.0944 2.07482,0.6094 7.98962,1.6455 10.72151,-4.2439 3.26785,-3.0757 -4.80605,-0.9699 -2.63738,-3.2895 2.38408,-2.5499 4.8654,-3.5937 4.58404,-11.9995 0,0 -1.97101,6.2509 -6.70915,8.5933 -0.72441,0.1904 -4.57237,4.1079 -5.33333,4.0193 -1.89564,-0.2206 -2.15195,-4.4022 -3.2639,-5.5122 -3.53153,-3.7343 -6.74684,-10.9808 -6.74684,-10.9808 z m 7.62069,1.0411 c 0,0 0.29419,4.8843 0.87031,6.5918 0.26254,0.7781 1.18008,1.8708 0.97924,2.2936 -0.20085,0.4225 0.89926,1.7169 1.75761,1.6913 0.85837,-0.024 1.81012,-0.4812 2.15559,-1.7908 0.91339,-3.971 -3.03976,-4.16 -5.76275,-8.7859 z"
       style="fill:#8affff;fill-opacity:1;stroke:#000000;stroke-width:1.00000012;stroke-linecap:round;stroke-linejoin:round;stroke-miterlimit:4;stroke-opacity:1;stroke-dasharray:none" />
    <path
       style="fill:#8affff;fill-opacity:1;stroke:#000000;stroke-width:1.00000012;stroke-linecap:round;stroke-linejoin:round;stroke-miterlimit:4;stroke-opacity:1;stroke-dasharray:none"
       d="m 203.43169,1018.7524 c 0,0 -1.98154,3.0822 -2.79914,4.022 -0.8176,0.9399 -4.0268,1.6164 -3.76356,2.5935 0.26074,0.9678 2.89029,2.5967 3.75548,2.4026 0.86516,-0.194 3.1242,-5.9327 2.93448,-6.2526 -0.18976,-0.3201 -0.59681,-0.7911 -0.19897,-1.3265 0.87308,-1.175 0.0718,-1.4391 0.0718,-1.4391 z m -28.9659,0.096 c -0.21912,3.4571 0.83735,5.2653 1.83338,6.3848 0.80753,3.2043 5.16062,-0.1579 1.3265,-1.9898 -2.01127,-1.1015 -3.15988,-4.395 -3.15988,-4.395 z m 5.44812,7.5123 c -0.67145,9.4411 1.21491,10.725 1.89026,14.0278 0.17838,0.4512 0.4405,2.8321 0.3675,3.1708 -3.40041,-2.4452 -6.1904,-8.4764 -8.80294,-13.9519 1.67105,7.4155 1.44177,12.3938 3.92532,14.3296 2.25915,1.7609 -2.46442,3.311 -0.92856,4.7754 1.53588,1.4645 4.73773,1.2908 6.26103,0.4921 0.4135,-0.2168 1.14148,-1.3387 1.69265,-1.7657 0.5178,0 1.65415,1.306 2.29362,1.2402 0.97081,0.5151 1.98916,0.8897 2.68618,1.0944 2.07482,0.6094 7.98962,1.6455 10.72151,-4.2439 3.26785,-3.0757 -4.80605,-0.9699 -2.63738,-3.2895 2.38408,-2.5499 4.8654,-3.5937 4.58404,-11.9995 0,0 -1.97101,6.2509 -6.70915,8.5933 -0.72441,0.1904 -4.57237,4.1079 -5.33333,4.0193 -1.89564,-0.2206 -2.15195,-4.4022 -3.2639,-5.5122 -3.53153,-3.7343 -6.74684,-10.9808 -6.74684,-10.9808 z m 7.62069,1.0411 c 0,0 0.29419,4.8843 0.87031,6.5918 0.26254,0.7781 1.18008,1.8708 0.97924,2.2936 -0.20085,0.4225 0.89926,1.7169 1.75761,1.6913 0.85837,-0.024 1.81012,-0.4812 2.15559,-1.7908 0.91339,-3.971 -3.03976,-4.16 -5.76275,-8.7859 z"
       id="path13339"
       inkscape:connector-curvature="0"
       sodipodi:nodetypes="cccccccccccccccsscccsccccsccccscccc" />
    <path
       sodipodi:nodetypes="cccccccccccccccsscccsccccsccccscccc"
       inkscape:connector-curvature="0"
       id="path13341"
       d="m 245.14025,1019.0612 c 0,0 -1.94269,3.0218 -2.74426,3.9432 -0.80157,0.9215 -3.94784,1.5847 -3.68976,2.5426 0.25563,0.9489 2.83362,2.5458 3.68184,2.3555 0.8482,-0.1902 3.06294,-5.8164 2.87694,-6.13 -0.18604,-0.3138 -0.58511,-0.7756 -0.19507,-1.3005 0.85596,-1.1519 0.0704,-1.4109 0.0704,-1.4109 z m -28.39794,0.094 c -0.21483,3.3893 0.82093,5.162 1.79743,6.2596 0.79169,3.1414 5.05943,-0.1548 1.30049,-1.9508 -1.97184,-1.0799 -3.09792,-4.3088 -3.09792,-4.3088 z m 5.34129,7.365 c -0.65828,9.2559 1.19109,10.5147 1.8532,13.7527 0.17488,0.4424 0.43186,2.7766 0.36029,3.1086 -3.33373,-2.3972 -6.06902,-8.3102 -8.63033,-13.6783 1.63828,7.2701 1.4135,12.1508 3.84835,14.0486 2.21485,1.7264 -2.4161,3.2461 -0.91035,4.6818 1.50576,1.4358 4.64483,1.2655 6.13826,0.4824 0.40539,-0.2125 1.1191,-1.3124 1.65946,-1.731 0.50765,0 1.62172,1.2804 2.24865,1.2159 0.95177,0.505 1.95016,0.8722 2.63351,1.0729 2.03414,0.5974 7.83296,1.6132 10.51128,-4.1607 3.20378,-3.0154 -4.71181,-0.9509 -2.58566,-3.225 2.33733,-2.4999 4.77,-3.5232 4.49415,-11.7642 0,0 -1.93236,6.1283 -6.57759,8.4248 -0.71021,0.1867 -4.48272,4.0273 -5.22876,3.9405 -1.85847,-0.2163 -2.10975,-4.3159 -3.1999,-5.4041 -3.46228,-3.6611 -6.61455,-10.7655 -6.61455,-10.7655 z m 7.47127,1.0207 c 0,0 0.28842,4.7885 0.85324,6.4625 0.25739,0.7628 1.15694,1.8341 0.96004,2.2486 -0.19691,0.4142 0.88163,1.6833 1.72315,1.6582 0.84154,-0.024 1.77462,-0.4718 2.11332,-1.7557 0.89548,-3.8932 -2.98016,-4.0785 -5.64975,-8.6136 z"
       style="fill:#8affff;fill-opacity:1;stroke:#000000;stroke-width:1.00000012;stroke-linecap:round;stroke-linejoin:round;stroke-miterlimit:4;stroke-opacity:1;stroke-dasharray:none" />
    <path
       style="fill:#8affff;fill-opacity:1;stroke:#000000;stroke-width:1.00000012;stroke-linecap:round;stroke-linejoin:round;stroke-miterlimit:4;stroke-opacity:1;stroke-dasharray:none"
       d="m 286.85452,1019.364 c 0,0 -1.9046,2.9625 -2.69045,3.8659 -0.78585,0.9034 -3.87043,1.5536 -3.61741,2.4927 0.25062,0.9303 2.77806,2.4959 3.60965,2.3093 0.83157,-0.1864 3.00288,-5.7023 2.82053,-6.0098 -0.1824,-0.3076 -0.57364,-0.7604 -0.19125,-1.275 0.83918,-1.1293 0.069,-1.3832 0.069,-1.3832 z m -27.84112,0.092 c -0.21061,3.3229 0.80484,5.0608 1.76219,6.1369 0.77617,3.0798 4.96023,-0.1518 1.27499,-1.9125 -1.93318,-1.0588 -3.03718,-4.2244 -3.03718,-4.2244 z m 5.23656,7.2206 c -0.64537,9.0744 1.16774,10.3086 1.81687,13.4831 0.17145,0.4337 0.42339,2.7221 0.35322,3.0476 -3.26836,-2.3502 -5.95002,-8.1472 -8.46111,-13.4101 1.60616,7.1276 1.38579,11.9126 3.7729,13.7732 2.17142,1.6925 -2.36873,3.1824 -0.8925,4.59 1.47623,1.4076 4.55375,1.2406 6.0179,0.4729 0.39744,-0.2083 1.09715,-1.2867 1.62692,-1.6971 0.4977,0 1.58992,1.2553 2.20456,1.1921 0.93311,0.4951 1.91192,0.8551 2.58187,1.0519 1.99426,0.5857 7.67937,1.5815 10.30518,-4.0792 3.14096,-2.9562 -4.61942,-0.9322 -2.53496,-3.1617 2.2915,-2.4509 4.67647,-3.4541 4.40603,-11.5335 0,0 -1.89447,6.0081 -6.44862,8.2596 -0.69629,0.183 -4.39483,3.9483 -5.12624,3.8632 -1.82203,-0.2121 -2.06838,-4.2313 -3.13715,-5.2981 -3.3944,-3.5894 -6.48486,-10.5545 -6.48486,-10.5545 z m 7.32478,1.0007 c 0,0 0.28276,4.6946 0.83651,6.3358 0.25234,0.7478 1.13425,1.7981 0.94121,2.2045 -0.19305,0.4061 0.86435,1.6503 1.68937,1.6257 0.82504,-0.024 1.73982,-0.4625 2.07188,-1.7213 0.87792,-3.8168 -2.92173,-3.9985 -5.53897,-8.4447 z"
       id="path13343"
       inkscape:connector-curvature="0"
       sodipodi:nodetypes="cccccccccccccccsscccsccccsccccscccc" />
    <path
       sodipodi:nodetypes="cccccccccccccccsscccsccccsccccscccc"
       inkscape:connector-curvature="0"
       id="path13345"
       d="m 328.57439,1019.6608 c 0,0 -1.86725,2.9045 -2.63769,3.7901 -0.77044,0.8857 -3.79454,1.5232 -3.54648,2.4439 0.2457,0.912 2.72359,2.4469 3.53887,2.264 0.81527,-0.1828 2.944,-5.5905 2.76523,-5.892 -0.17883,-0.3015 -0.5624,-0.7455 -0.1875,-1.25 0.82272,-1.1071 0.0676,-1.356 0.0676,-1.356 z m -27.29521,0.09 c -0.20648,3.2577 0.78906,4.9615 1.72764,6.0165 0.76095,3.0194 4.86297,-0.1488 1.24999,-1.875 -1.89528,-1.038 -2.97763,-4.1415 -2.97763,-4.1415 z m 5.13388,7.079 c -0.63271,8.8964 1.14484,10.1064 1.78125,13.2187 0.16808,0.4252 0.41508,2.6687 0.34629,2.9878 -3.20427,-2.3041 -5.83335,-7.9874 -8.29521,-13.1471 1.57467,6.9878 1.35862,11.679 3.69893,13.5031 2.12884,1.6593 -2.32229,3.12 -0.875,4.5 1.44728,1.38 4.46446,1.2163 5.8999,0.4636 0.38965,-0.2042 1.07564,-1.2614 1.59502,-1.6638 0.48794,0 1.55874,1.2307 2.16133,1.1687 0.91481,0.4854 1.87443,0.8384 2.53125,1.0313 1.95515,0.5742 7.52879,1.5505 10.10311,-3.9992 3.07938,-2.8982 -4.52884,-0.9139 -2.48525,-3.0997 2.24657,-2.4028 4.58477,-3.3864 4.31964,-11.3074 0,0 -1.85733,5.8903 -6.32218,8.0977 -0.68264,0.1794 -4.30866,3.8709 -5.02573,3.7874 -1.7863,-0.2079 -2.02782,-4.1483 -3.07563,-5.1942 -3.32785,-3.519 -6.35771,-10.3475 -6.35771,-10.3475 z m 7.18116,0.981 c 0,0 0.27721,4.6026 0.82011,6.2116 0.24739,0.7332 1.11201,1.7629 0.92275,2.1613 -0.18926,0.3981 0.8474,1.6179 1.65625,1.5938 0.80886,-0.024 1.7057,-0.4534 2.03125,-1.6875 0.86071,-3.742 -2.86444,-3.9201 -5.43036,-8.2792 z"
       style="fill:#8affff;fill-opacity:1;stroke:#000000;stroke-width:1.00000012;stroke-linecap:round;stroke-linejoin:round;stroke-miterlimit:4;stroke-opacity:1;stroke-dasharray:none" />
  </g>
</svg>
